<svg width="553" height="68" viewBox="0 0 553 68" fill="none" xmlns="http://www.w3.org/2000/svg">
<path d="M10.8 67H0V0H47.5V9.7H10.8V30.4H46V40.2H10.8V67Z" fill="#1DAF61"/>
<path d="M68.1828 68C59.2828 68 52.3828 63.4 52.3828 54.7C52.3828 46.5 58.3828 42.2 68.9828 40.7L86.3828 38.1V35.4C86.3828 28 82.9828 25.8 75.1828 25.8C67.2828 25.8 64.1828 28.3 64.1828 34.9V36.4H53.7828V35.4C53.7828 24.3 62.4828 16.3 75.7828 16.3C89.6828 16.3 96.6828 24.7 96.6828 36.8V67H86.6828V59.2H86.1828C83.2828 63.9 77.5828 68 68.1828 68ZM62.8828 53.9C62.8828 57.8 65.3828 59.4 71.6828 59.4C78.6828 59.4 86.3828 56.6 86.3828 46.6V45.7L70.5828 48.1C64.8828 48.9 62.8828 50.2 62.8828 53.9Z" fill="#1DAF61"/>
<path d="M117.824 67H107.024V17H116.924V24.9H117.424C119.424 20.3 124.024 16.3 131.324 16.3C141.724 16.3 145.724 23.9 145.724 33.2V36.5H134.924V34.5C134.924 27.9 133.024 25.5 126.724 25.5C120.224 25.5 117.824 28 117.824 34.6V67Z" fill="#1DAF61"/>
<path d="M163.234 67H152.434V17.3H162.334V26.6H162.734C165.034 21.3 170.234 16.3 179.734 16.3C188.434 16.3 193.834 20.3 196.234 26.6H196.534C198.834 21.4 203.934 16.3 213.734 16.3C226.534 16.3 232.234 24.5 232.234 35.8V67H221.434V38.2C221.434 29.3 218.734 25.6 209.734 25.6C201.534 25.6 197.734 29 197.734 38.1V67H186.934V38.2C186.934 29.3 184.234 25.6 175.234 25.6C167.034 25.6 163.234 29 163.234 38V67Z" fill="#1DAF61"/>
<path d="M253.671 67H242.871V0H254.471L279.871 38.4L286.971 49.1H287.771V0H298.571V67H286.971L254.371 18.3H253.671V67Z" fill="#1DAF61"/>
<path d="M331.191 68C315.891 68 306.391 57.6 306.391 42.1C306.391 26.7 315.891 16.3 331.191 16.3C346.391 16.3 355.591 26.7 355.591 42.1C355.591 57.6 346.391 68 331.191 68ZM331.191 58.4C341.591 58.4 345.191 53.3 345.191 42.1C345.191 31 341.591 25.9 331.191 25.9C320.691 25.9 316.991 31 316.991 42.1C316.991 53.3 320.691 58.4 331.191 58.4Z" fill="#1DAF61"/>
<path d="M374.465 67H363.665V17.3H373.565V26.6H373.965C376.265 21.3 381.465 16.3 390.965 16.3C399.665 16.3 405.065 20.3 407.465 26.6H407.765C410.065 21.4 415.165 16.3 424.965 16.3C437.765 16.3 443.465 24.5 443.465 35.8V67H432.665V38.2C432.665 29.3 429.965 25.6 420.965 25.6C412.765 25.6 408.965 29 408.965 38.1V67H398.165V38.2C398.165 29.3 395.465 25.6 386.465 25.6C378.265 25.6 374.465 29 374.465 38V67Z" fill="#1DAF61"/>
<path d="M467.206 68C458.306 68 451.406 63.4 451.406 54.7C451.406 46.5 457.406 42.2 468.006 40.7L485.406 38.1V35.4C485.406 28 482.006 25.8 474.206 25.8C466.306 25.8 463.206 28.3 463.206 34.9V36.4H452.806V35.4C452.806 24.3 461.506 16.3 474.806 16.3C488.706 16.3 495.706 24.7 495.706 36.8V67H485.706V59.2H485.206C482.306 63.9 476.606 68 467.206 68ZM461.906 53.9C461.906 57.8 464.406 59.4 470.706 59.4C477.706 59.4 485.406 56.6 485.406 46.6V45.7L469.606 48.1C463.906 48.9 461.906 50.2 461.906 53.9Z" fill="#1DAF61"/>
<path d="M525.752 68C511.552 68 503.852 57.9 503.852 42.1C503.852 26.4 511.452 16.3 525.152 16.3C533.952 16.3 539.252 20.5 541.452 25H541.752V0H552.452V67H542.552V58.8H542.152C539.752 64.5 534.252 68 525.752 68ZM514.652 42.1C514.652 54.4 518.552 58.8 528.152 58.8C536.952 58.8 541.752 54.9 541.752 46.6V37.7C541.752 29.4 536.952 25.5 528.152 25.5C518.652 25.5 514.652 29.9 514.652 42.1Z" fill="#1DAF61"/>
</svg>
