<svg width="110" height="100" viewBox="0 0 110 100" fill="none" xmlns="http://www.w3.org/2000/svg">
<path d="M106.767 34.7808V76.4401L70.4229 97.4071V86.9896L91.3229 74.9346L79.7508 68.3412L70.4229 63.0335V48.4512L75.6809 51.4511L84.7669 56.6269L97.6809 63.9787V40.0225L106.767 34.7808Z" stroke="#A3A3A3" stroke-width="1.5"/>
<path d="M91.3229 74.9346L79.0029 68.7808L69.3229 63.9456L61.3368 59.3961V58.4951L70.4229 63.0335L79.7508 68.3412L91.3229 74.9346Z" stroke="#A3A3A3" stroke-width="1.5"/>
<path d="M70.4229 86.9896V97.4071L48.4229 86.4181V84.0446L55.9029 79.7368L58.1029 80.8357L70.4229 86.9896Z" stroke="#A3A3A3" stroke-width="1.5"/>
<path d="M52.2508 71.429L24.9928 87.1543L17.5017 83.418L16.6217 82.9785L12.6618 81.0005L2.99277 76.1653L17.5128 67.7917L24.9928 71.528L37.7419 64.1763L39.3368 64.9785L52.2508 71.429Z" stroke="#A3A3A3" stroke-width="1.5"/>
<path d="M38.6217 22.0112V27.22L26.2907 21.0662L16.6217 16.231V11.0222L31.1309 18.2749L38.6217 22.0112Z" stroke="#A3A3A3" stroke-width="1.5"/>
<path d="M47.7077 21.9786V16.7698L39.3368 12.5941L30.5479 8.19848L39.3368 3.13257L61.3368 14.1216L47.7077 21.9786Z" stroke="#A3A3A3" stroke-width="1.5"/>
<path d="M47.7077 16.77L38.6217 22.0118L31.1309 18.2755L16.6217 11.0228L25.7077 5.78101L30.5479 8.19868L39.3368 12.5943L47.7077 16.77Z" stroke="#A3A3A3" stroke-width="1.5"/>
<path d="M38.6217 27.2202L24.9928 35.0774L12.6729 28.9236L2.99277 24.0883L16.6217 16.2312L26.2907 21.0664L38.6217 27.2202Z" stroke="#A3A3A3" stroke-width="1.5"/>
<path d="M24.9928 35.0774V71.528L17.5128 67.7917L2.99277 60.539V24.0884L12.6729 28.9235L24.9928 35.0774Z" stroke="#A3A3A3" stroke-width="1.5"/>
<path d="M61.3368 40.1544L57.8497 42.1653L57.2669 42.506L48.4229 47.6049L39.3368 52.8468L34.0788 55.8797V40.2533L39.3368 37.2203L46.8169 32.9016L61.3368 40.1544Z" stroke="#A3A3A3" stroke-width="1.5"/>
<path d="M106.767 34.7808L97.6809 40.0225L75.6809 29.0335L84.7669 23.7917L106.767 34.7808Z" stroke="#A3A3A3" stroke-width="1.5"/>
<path d="M97.6809 40.0225V63.9786L84.7669 56.6269L75.6809 51.451V29.0334L97.6809 40.0225Z" stroke="#A3A3A3" stroke-width="1.5"/>
<path d="M52.2508 55.8137V71.4291L39.3368 64.9786L37.7419 64.1764L39.3368 63.2533L52.2508 55.8137Z" stroke="#A3A3A3" stroke-width="1.5"/>
<path d="M34.0788 40.2533V55.8798L39.3368 52.8469L48.4229 47.6051L57.2669 42.5061L57.8497 42.1654L61.3368 40.1544V76.6051L55.9029 79.7369L48.4229 84.0447L47.7077 84.4621V89.671L38.6217 94.9127V89.7039L33.7818 92.4951L24.9928 97.561V87.1544L52.2508 71.4292V55.8138L39.3368 63.2533L37.7419 64.1764L24.9928 71.5282V35.0775L38.6217 27.2204V22.0116L47.7077 16.7698V21.9786L61.3368 14.1216V24.5282L46.8169 32.9018L39.3368 37.2204L34.0788 40.2533Z" stroke="#A3A3A3" stroke-width="1.5"/>
<path d="M70.4229 48.4512V63.0335L61.3368 58.4951V43.9126L70.4229 48.4512Z" stroke="#A3A3A3" stroke-width="1.5"/>
<path d="M91.3229 74.9346L70.4229 86.9895L58.1029 80.8357L55.9029 79.7368L61.3368 76.6049V68.55L69.3229 63.9456L79.0029 68.7808L91.3229 74.9346Z" stroke="#A3A3A3" stroke-width="1.5"/>
<path d="M38.6217 89.7036V94.9124L33.7818 92.4948L38.6217 89.7036Z" stroke="#A3A3A3" stroke-width="1.5"/>
<path d="M24.9928 87.1543V97.5609L2.99277 86.5719V76.1653L12.6618 81.0006L16.6217 82.9785L17.5017 83.418L24.9928 87.1543Z" stroke="#A3A3A3" stroke-width="1.5"/>
</svg>
