<svg width="76" height="100" viewBox="0 0 76 100" fill="none" xmlns="http://www.w3.org/2000/svg">
<path d="M73.5408 15.9563C73.3075 15.3313 72.9658 14.8313 72.5075 14.448L68.6992 11.3147C68.5492 11.1813 68.3826 11.0646 68.2076 10.9729L68.0742 10.9063C67.6492 10.698 67.1576 10.6147 66.5992 10.648C65.7659 10.6897 64.8825 10.9813 63.9742 11.5063L57.2159 15.4062L56.8242 15.6313L41.9658 24.2147L28.9076 31.7562C27.9909 32.2812 27.1159 33.0063 26.2742 33.923C25.4326 34.848 24.7325 35.8812 24.1742 37.0146L20.3659 44.5563C19.9076 45.4563 19.5659 46.3563 19.3326 47.248C19.1076 48.1397 18.9909 48.9897 18.9909 49.8063V93.4567C18.9909 95.3817 19.5909 96.69 20.7826 97.365C21.9826 98.0483 23.4158 97.9067 25.0908 96.94L67.7826 72.2896C69.4576 71.323 70.8992 69.8062 72.0908 67.7479C73.2825 65.6896 73.8826 63.698 73.8826 61.773V18.123C73.8826 17.3063 73.7658 16.5813 73.5408 15.9563ZM58.6325 54.3897C58.6325 55.7313 58.1492 57.0147 57.1825 58.2397C56.5075 59.1063 55.8158 59.6646 55.1158 59.9229C54.8158 60.0312 54.5159 60.0896 54.2159 60.0896L46.4409 60.123L38.6575 69.073C37.6408 70.2397 36.6576 70.7646 35.6909 70.6562C34.7242 70.5396 34.2409 69.8146 34.2409 68.4729V46.1647L41.9658 41.7062L57.2159 32.8979L58.6325 32.0813V54.3897ZM57.2159 25.9063L41.9658 34.7146L26.3159 43.748L28.9076 38.748L41.9658 31.2063L57.2159 22.4063L63.3242 18.8812L63.9742 18.5063L66.5658 20.5062L57.2159 25.9063Z" stroke="#A3A3A3" stroke-width="1.5"/>
<path d="M58.6325 32.0813V54.3896C58.6325 55.7313 58.1492 57.0146 57.1825 58.2396C56.5075 59.1063 55.8158 59.6645 55.1158 59.9229C54.8158 60.0312 54.5159 60.0895 54.2159 60.0895L46.4409 60.123L34.2409 54.023V51.773L37.5492 51.7562C38.5659 51.7562 39.5575 51.1396 40.5158 49.9063C41.4825 48.6813 41.9658 47.398 41.9658 46.0563V41.7062L57.2159 32.8979L58.6325 32.0813Z" stroke="#A3A3A3" stroke-width="1.5"/>
<path d="M66.5658 20.5063L57.2159 25.9064L41.9658 34.7147L26.3159 43.748L28.9076 38.748L41.9658 31.2064L57.2159 22.4064L63.3242 18.8813L66.5658 20.5063Z" stroke="#A3A3A3" stroke-width="1.5"/>
<path d="M46.4409 60.1229L38.6575 69.073C37.6408 70.2396 36.6576 70.7646 35.6909 70.6563C34.7242 70.5396 34.2409 69.8146 34.2409 68.473V54.0229L46.4409 60.1229Z" stroke="#A3A3A3" stroke-width="1.5"/>
<path d="M68.0743 10.9062C67.6493 10.6978 67.1576 10.6145 66.5992 10.6478C65.7659 10.6895 64.8825 10.9811 63.9742 11.5061L57.2159 15.4061L56.8243 15.6312L41.9658 24.2144L28.9076 31.7561C27.9909 32.2811 27.1159 33.0062 26.2743 33.9228C25.4326 34.8478 24.7325 35.8811 24.1742 37.0144L20.3659 44.5562C19.9076 45.4562 19.5659 46.3562 19.3326 47.2478C19.1076 48.1395 18.9909 48.9895 18.9909 49.8062V93.4558C18.9909 95.3808 19.5909 96.6891 20.7826 97.3641L4.11591 89.0307C2.92424 88.3557 2.32422 87.0474 2.32422 85.1224V41.4728C2.32422 40.6562 2.44092 39.8062 2.66592 38.9145C2.89925 38.0228 3.24091 37.1228 3.69924 36.2228L7.50753 28.6811C8.06586 27.5478 8.76592 26.5145 9.60759 25.5895C10.4493 24.6728 11.3243 23.9478 12.2409 23.4228L47.3075 3.17279C48.2158 2.64779 49.0993 2.35615 49.9326 2.31449C50.5743 2.27282 51.1326 2.39781 51.6076 2.67281L51.6326 2.68944L68.0743 10.9062Z" stroke="#A3A3A3" stroke-width="1.5"/>
</svg>
