<svg width="24" height="24" viewBox="0 0 24 24" fill="none" xmlns="http://www.w3.org/2000/svg">
<path d="M5.03697 17.9031C5.16297 18.1411 5.55097 18.6861 6.09697 18.9631L4.52997 20.5301C4.46131 20.6038 4.37851 20.6629 4.28651 20.7039C4.19451 20.7448 4.0952 20.7669 3.99449 20.7687C3.89379 20.7704 3.79376 20.7519 3.70037 20.7142C3.60698 20.6765 3.52215 20.6203 3.45093 20.5491C3.37971 20.4779 3.32357 20.3931 3.28585 20.2997C3.24813 20.2063 3.2296 20.1063 3.23138 20.0056C3.23316 19.9049 3.2552 19.8055 3.29619 19.7135C3.33718 19.6215 3.39628 19.5387 3.46997 19.4701L5.03697 17.9031Z" fill="#178C4E"/>
<path d="M6.09696 18.9641C7.92496 19.9611 9.70796 20.3991 11.372 20.2901C13.198 20.1701 14.819 19.3931 16.13 18.0821C18.729 15.4831 20.073 10.8421 19.685 5.01512C19.673 4.83367 19.5955 4.66275 19.4669 4.53416C19.3383 4.40558 19.1674 4.32809 18.986 4.31612C13.16 3.92812 8.51696 5.27212 5.91996 7.87012C4.60996 9.18112 3.83196 10.8031 3.71196 12.6301C3.60196 14.2921 4.04096 16.0761 5.03796 17.9031L9.56996 13.3701C9.63862 13.2964 9.72142 13.2373 9.81342 13.1963C9.90542 13.1553 10.0047 13.1333 10.1054 13.1315C10.2061 13.1298 10.3062 13.1483 10.3996 13.186C10.4929 13.2237 10.5778 13.2799 10.649 13.3511C10.7202 13.4223 10.7764 13.5071 10.8141 13.6005C10.8518 13.6939 10.8703 13.7939 10.8685 13.8946C10.8668 13.9953 10.8447 14.0947 10.8037 14.1867C10.7627 14.2787 10.7036 14.3615 10.63 14.4301L6.09696 18.9641Z" fill="#178C4E"/>
</svg>
