<svg width="80" height="100" viewBox="0 0 80 100" fill="none" xmlns="http://www.w3.org/2000/svg">
<path d="M19.8062 85.4907V94.6053C19.8062 96.1275 20.2663 97.154 21.1955 97.6761C22.1159 98.2071 23.2486 98.0921 24.5672 97.3222L72.2398 69.8004C73.5672 69.0393 74.6911 67.8535 75.6203 66.2606C76.5407 64.6588 77.0097 63.1014 77.0097 61.5792V52.4641L19.8062 85.4907ZM28.4255 90.4018C27.8149 91.4549 27.0628 92.2425 26.1601 92.7558C25.2575 93.2779 24.5053 93.3664 23.8946 93.0213C23.284 92.6673 22.9831 91.977 22.9831 90.9505C22.9831 89.9239 23.284 88.8708 23.8946 87.8269C24.5053 86.7738 25.2575 85.9863 26.1601 85.4642C27.0628 84.9509 27.8149 84.8623 28.4255 85.2075C29.0273 85.5526 29.3371 86.2429 29.3371 87.2783C29.3371 88.3137 29.0273 89.3576 28.4255 90.4018Z" stroke="#A3A3A3" stroke-width="1.5"/>
<path d="M29.337 87.2783C29.337 88.3137 29.0272 89.3576 28.4254 90.4018C27.8148 91.4549 27.0626 92.2425 26.16 92.7558C25.2573 93.2779 24.505 93.3664 23.8944 93.0213C23.2838 92.6673 22.9829 91.977 22.9829 90.9505C22.9829 89.9239 23.2838 88.8708 23.8944 87.8269C24.505 86.7738 25.2573 85.9863 26.16 85.4642C27.0626 84.9509 27.8148 84.8624 28.4254 85.2076C29.0272 85.5527 29.337 86.2429 29.337 87.2783Z" stroke="#A3A3A3" stroke-width="1.5"/>
<path d="M75.3281 10.9597C74.4609 10.5968 73.4344 10.7651 72.2397 11.4553L24.5671 38.9774C23.2486 39.7385 22.1158 40.9243 21.1955 42.5173C20.868 43.0836 20.6025 43.6412 20.3902 44.1987C20.0008 45.2164 19.8061 46.2164 19.8061 47.1987V56.3136L8.87688 50.8447L2.10693 47.4641V38.3491C2.10693 36.827 2.56717 35.2695 3.49638 33.6677C4.41673 32.0748 5.54941 30.8889 6.868 30.1279L54.5406 2.60574C55.868 1.83583 56.9919 1.72077 57.9211 2.25174L75.3281 10.9597Z" stroke="#A3A3A3" stroke-width="1.5"/>
<path d="M75.6203 11.1012L75.3282 10.9595C74.4609 10.5966 73.4345 10.7649 72.2398 11.4551L24.5672 38.9773C23.2486 39.7383 22.1159 40.9242 21.1955 42.5171C20.8681 43.0835 20.6026 43.641 20.3902 44.1985C20.0008 45.2162 19.8062 46.2162 19.8062 47.1985V56.3135L59.3106 33.5081L70.2397 27.1984L77.0097 23.287V14.1719C77.0097 12.6497 76.5407 11.6321 75.6203 11.1012ZM28.4255 46.641C27.8149 47.6941 27.0628 48.4816 26.1601 48.9949C25.2575 49.517 24.5053 49.6056 23.8946 49.2604C23.284 48.9065 22.9831 48.2162 22.9831 47.1897C22.9831 46.1631 23.284 45.11 23.8946 44.0569C24.5053 43.0127 25.2575 42.225 26.1601 41.7028C27.0628 41.1896 27.8149 41.1012 28.4255 41.4463C29.0273 41.7914 29.3371 42.4817 29.3371 43.5171C29.3371 44.5525 29.0273 45.5967 28.4255 46.641Z" stroke="#A3A3A3" stroke-width="1.5"/>
<path d="M29.337 43.5174C29.337 44.5528 29.0272 45.597 28.4254 46.6413C27.8148 47.6944 27.0626 48.482 26.16 48.9952C25.2573 49.5174 24.505 49.6059 23.8944 49.2607C23.2838 48.9068 22.9829 48.2165 22.9829 47.1899C22.9829 46.1634 23.2838 45.1103 23.8944 44.0572C24.505 43.0129 25.2573 42.2253 26.16 41.7032C27.0626 41.1899 27.8148 41.1014 28.4254 41.4466C29.0272 41.7917 29.337 42.482 29.337 43.5174Z" stroke="#A3A3A3" stroke-width="1.5"/>
<path d="M19.8062 63.6056V78.1986L58.7176 55.7295L70.2397 49.0835L77.0097 45.172V30.5791L19.8062 63.6056ZM28.4255 68.526C27.8149 69.5703 27.0628 70.3579 26.1601 70.88C25.2575 71.4021 24.5053 71.4818 23.8946 71.1366C23.284 70.7915 22.9831 70.1012 22.9831 69.0658C22.9831 68.0304 23.284 66.995 23.8946 65.9419C24.5053 64.8888 25.2575 64.1101 26.1601 63.5879C27.0628 63.0658 27.8149 62.9774 28.4255 63.3314C29.0273 63.6765 29.3371 64.3667 29.3371 65.4021C29.3371 66.4375 29.0273 67.4729 28.4255 68.526Z" stroke="#A3A3A3" stroke-width="1.5"/>
<path d="M29.337 65.4022C29.337 66.4287 29.0272 67.473 28.4254 68.5261C27.8148 69.5703 27.0626 70.3579 26.16 70.88C25.2573 71.4021 24.505 71.4818 23.8944 71.1366C23.2838 70.7915 22.9829 70.1013 22.9829 69.0659C22.9829 68.0305 23.2838 66.9951 23.8944 65.942C24.505 64.8889 25.2573 64.1101 26.16 63.5879C27.0626 63.0658 27.8148 62.9774 28.4254 63.3314C29.0272 63.6765 29.337 64.3668 29.337 65.4022Z" stroke="#A3A3A3" stroke-width="1.5"/>
<path d="M77.0096 30.579L19.8061 63.6056L15.6556 61.5259L10.9831 59.1896L6.33705 56.8711L2.10693 54.756L8.87688 50.8446L19.8061 56.3135L59.3105 33.5082L70.2396 27.1985L77.0096 30.579Z" stroke="#A3A3A3" stroke-width="1.5"/>
<path d="M77.0096 52.464L19.8061 85.4906L15.6379 83.4109L10.9831 81.0746L6.33705 78.7561L2.10693 76.641L8.87688 72.7295L19.8061 78.1985L58.7175 55.7295L70.2396 49.0835L77.0096 52.464Z" stroke="#A3A3A3" stroke-width="1.5"/>
<path d="M19.8061 63.6057V78.1986L8.87688 72.7296L2.10693 69.349V54.7561L6.33705 56.8712L10.9831 59.1897L15.6556 61.526L19.8061 63.6057Z" stroke="#A3A3A3" stroke-width="1.5"/>
<path d="M21.1955 97.677L3.78837 88.969L3.49638 88.8274C2.56717 88.3048 2.10693 87.2783 2.10693 85.7562V76.6411L6.33705 78.7562L10.9831 81.0747L15.6379 83.411L19.8061 85.4907V94.6062C19.8061 96.1283 20.2663 97.1548 21.1955 97.677Z" stroke="#A3A3A3" stroke-width="1.5"/>
</svg>
