<svg width="90" height="100" viewBox="0 0 90 100" fill="none" xmlns="http://www.w3.org/2000/svg">
<path d="M69.0083 13.97C69.0083 15.7926 68.4439 17.6878 67.3068 19.6394C66.1778 21.591 64.8149 23.0265 63.2261 23.9458C62.3149 24.4781 61.4841 24.7442 60.7261 24.7523H60.718C60.1535 24.7604 59.6293 24.6313 59.1454 24.3491C58.7583 24.1313 58.4358 23.841 58.1939 23.4862C57.6858 22.7926 57.444 21.8491 57.444 20.6475C57.444 18.8249 58.0083 16.9378 59.1454 14.9781C60.2745 13.0265 61.6374 11.591 63.2261 10.6717C64.6536 9.85714 65.8954 9.66359 66.9519 10.091L67.3068 10.2684C68.4439 10.9136 69.0083 12.1475 69.0083 13.97Z" stroke="#A3A3A3" stroke-width="1.5"/>
<path d="M83.5734 38.6153L82.6863 38.1718C80.0165 37.075 76.928 37.6314 73.3473 39.6637C72.7667 39.9943 72.2021 40.3572 71.6537 40.7524C69.3392 42.3653 67.2423 44.4459 65.3633 46.9943C64.5811 48.0588 63.8311 49.1959 63.1214 50.4218C62.1778 52.0508 61.3876 53.6717 60.7586 55.2685C59.6295 58.1314 59.0165 60.9379 58.9036 63.6959C58.8956 63.9943 58.8875 64.3008 58.8875 64.5992C58.8875 69.1879 60.2988 72.2847 63.1214 73.8895C65.9359 75.5024 69.3473 75.1476 73.3473 72.8411C77.3473 70.5347 80.7508 66.9459 83.5734 62.083C86.3879 57.2201 87.7992 52.4943 87.7992 47.9056C87.7992 43.3169 86.3879 40.2201 83.5734 38.6153ZM79.4843 59.7524C77.7988 62.6637 75.7506 64.8169 73.3473 66.204C70.9361 67.5992 68.8876 67.8088 67.2021 66.8492C65.5166 65.8895 64.6699 64.0266 64.6699 61.2605C64.6699 60.0105 64.8392 58.7363 65.194 57.454C65.6134 55.9056 66.2828 54.3411 67.2021 52.7524C67.9924 51.3976 68.8553 50.1959 69.7988 49.1718C70.8794 47.9943 72.0651 47.0427 73.3473 46.3008C75.7506 44.9137 77.7988 44.6959 79.4843 45.6556C81.1782 46.6153 82.0169 48.4782 82.0169 51.2443C82.0169 54.0105 81.1782 56.8492 79.4843 59.7524Z" stroke="#A3A3A3" stroke-width="1.5"/>
<path d="M73.4923 33.1958C73.4761 33.3168 73.4519 33.4377 73.4277 33.5587C73.2502 34.4458 72.8874 35.2765 72.331 36.0587C72.0568 36.4458 71.7664 36.7765 71.46 37.0506C71.0568 37.4136 70.6292 37.6796 70.1615 37.849C68.3147 38.5425 66.5569 38.9377 64.8956 39.0344C64.6133 39.0506 64.331 39.0586 64.0568 39.0586C62.1535 39.0586 60.4277 38.6071 58.8873 37.7281L58.589 37.5586L56.5729 36.4055L54.1213 40.6313L49.6373 48.3732L54.4117 51.349C54.9359 51.6474 55.339 52.1071 55.5971 52.7281C55.8632 53.349 56.0003 54.107 56.0003 54.986V69.5829C56.0003 69.8248 55.9842 70.0587 55.9439 70.3006C55.839 71.0023 55.581 71.7119 55.1697 72.4297C54.6132 73.3813 53.9277 74.0989 53.1051 74.5748C52.2906 75.0425 51.6051 75.1231 51.0486 74.8086C50.4922 74.4941 50.218 73.8652 50.218 72.9216V59.6555L42.7583 56.47L40.968 55.7038C40.5164 55.4941 40.1535 55.1715 39.8713 54.736C39.7987 54.6151 39.7261 54.4781 39.6616 54.341C39.3713 53.7039 39.2342 52.9458 39.2342 52.0668C39.2342 51.1877 39.3875 50.2442 39.702 49.2603C39.7504 49.099 39.8068 48.9377 39.8713 48.7765C40.1616 47.97 40.5244 47.1797 40.968 46.4135L49.0567 32.4539C49.3954 31.8652 49.7665 31.3248 50.1616 30.8248H50.1697C50.4439 30.47 50.7341 30.1313 51.0486 29.8168C51.7906 29.0506 52.581 28.4297 53.3955 27.9619C54.2181 27.4861 55.0003 27.2039 55.7423 27.099C56.089 27.0506 56.4277 27.0506 56.7341 27.099C57.097 27.1474 57.4277 27.2603 57.7341 27.4377L61.7906 29.7523L63.2261 30.5748C64.331 31.2039 65.5487 31.5344 66.8794 31.5748C67.4681 31.5909 68.0729 31.5426 68.6939 31.4377C68.8068 31.4135 68.9197 31.3893 69.0406 31.3731H69.0487C69.7181 31.228 70.4036 31.0265 71.1052 30.7523C71.6777 30.5345 72.1617 30.5103 72.5649 30.6716L72.6858 30.7281C72.8068 30.7926 72.9196 30.8731 73.0164 30.9699C73.476 31.4296 73.6374 32.1635 73.4923 33.1877V33.1958Z" stroke="#A3A3A3" stroke-width="1.5"/>
<path d="M82.0161 51.2443C82.0161 54.0104 81.1774 56.8491 79.4841 59.7523C77.7986 62.6636 75.7503 64.8169 73.3471 66.2039C70.9358 67.5991 68.8873 67.8088 67.2019 66.8491C65.5164 65.8894 64.6697 64.0265 64.6697 61.2604C64.6697 60.0104 64.839 58.7362 65.1938 57.4539C65.6131 55.9056 66.2825 54.341 67.2019 52.7523C67.9922 51.3975 68.8551 50.1959 69.7986 49.1717C70.8793 47.9943 72.0648 47.0427 73.3471 46.3007C75.7503 44.9136 77.7986 44.6959 79.4841 45.6556C81.1774 46.6152 82.0161 48.4781 82.0161 51.2443Z" stroke="#A3A3A3" stroke-width="1.5"/>
<path d="M82.6855 38.1717C80.016 37.075 76.9274 37.6314 73.3468 39.6637C72.7662 39.9943 72.2016 40.3572 71.6532 40.7524C69.3387 42.3653 67.2418 44.4459 65.3628 46.9943C64.5805 48.0588 63.8305 49.1959 63.1208 50.4217C62.1773 52.0508 61.387 53.6717 60.7579 55.2685C59.6289 58.1314 59.016 60.9379 58.9031 63.6959C58.895 63.9943 58.887 64.3008 58.887 64.5992C58.887 69.1879 60.2983 72.2846 63.1208 73.8895L55.9435 70.3008C55.9838 70.0588 55.9999 69.825 55.9999 69.5831V54.9863C55.9999 54.1072 55.8629 53.3492 55.5967 52.7282C55.3387 52.1072 54.9355 51.6475 54.4113 51.3492L49.637 48.3734L54.1209 40.6314L56.5725 36.4056L58.5887 37.5588L58.887 37.7282C60.4273 38.6072 62.1532 39.0508 64.0564 39.0588C64.3306 39.0588 64.6129 39.0588 64.8952 39.0346C66.5565 38.9379 68.3144 38.5427 70.1612 37.8492C70.6289 37.6798 71.0564 37.4137 71.4596 37.0508C71.7661 36.7766 72.0564 36.4459 72.3306 36.0588C72.887 35.2766 73.2499 34.4459 73.4273 33.5588L82.6855 38.1717Z" stroke="#A3A3A3" stroke-width="1.5"/>
<path d="M72.5649 30.6797C72.1617 30.5184 71.6777 30.5426 71.1052 30.7603C70.4036 31.0345 69.7181 31.2362 69.0487 31.3814H69.0406C68.9197 31.3975 68.8068 31.4217 68.6939 31.4459C68.0729 31.5508 67.4681 31.5991 66.8794 31.583C65.5487 31.5427 64.331 31.212 63.2261 30.5829L61.7906 29.7603L57.7341 27.4458C57.4277 27.2684 57.097 27.1556 56.7341 27.1072C56.4277 27.0508 56.089 27.0508 55.7423 27.1072C55.0003 27.212 54.2181 27.4942 53.3955 27.97C52.581 28.4378 51.7906 29.0587 51.0486 29.8249C50.7341 30.1394 50.4439 30.4781 50.1697 30.8329H50.1616C49.7665 31.3329 49.3954 31.8733 49.0567 32.462L40.968 46.4216C40.5244 47.1878 40.1616 47.9782 39.8713 48.7846C39.8068 48.9459 39.7504 49.1071 39.702 49.2684C39.3875 50.2523 39.2342 51.1878 39.2342 52.0749C39.2342 52.962 39.3713 53.712 39.6616 54.3491C39.7261 54.4862 39.7987 54.6233 39.8713 54.7443V55.1636L34.089 52.2765L24.839 47.6475C24.2583 47.3733 23.8229 46.9216 23.5326 46.2845C23.2423 45.6474 23.1052 44.8894 23.1052 44.0103C23.1052 43.1313 23.2585 42.1878 23.573 41.2039C23.8875 40.22 24.3067 39.2765 24.839 38.3571L32.9277 24.3974C33.5083 23.3974 34.1696 22.5184 34.9196 21.7603C35.6615 20.9942 36.4519 20.3733 37.2665 19.9055C38.089 19.4297 38.8713 19.1475 39.6132 19.0427C40.3632 18.9459 41.0244 19.0587 41.6051 19.3894L47.0971 22.5265C48.2019 23.1555 49.4197 23.4862 50.7503 23.5265C52.0729 23.5587 53.4842 23.2845 54.9761 22.7039C55.1697 22.6313 55.3552 22.583 55.5326 22.5508L57.2019 23.3814L59.1454 24.3571C59.6293 24.6394 60.1535 24.7684 60.718 24.7603H60.7261L72.5649 30.6879V30.6797Z" stroke="#A3A3A3" stroke-width="1.5"/>
<path d="M46.1453 65.2604C45.605 64.1475 44.8631 63.2442 43.9357 62.5426C43.6695 62.3329 43.3953 62.1475 43.0969 61.9781L42.3307 61.591C41.5565 61.2604 40.7421 61.0668 39.8711 61.0104C38.1211 60.8894 36.1936 61.3491 34.0887 62.3894C33.6855 62.5829 33.2823 62.8007 32.871 63.0346C32.2903 63.3652 31.726 63.7281 31.1776 64.1233C28.8631 65.7281 26.7662 67.8087 24.8872 70.3652C24.0969 71.4297 23.3549 72.5668 22.6452 73.7926C21.7017 75.4216 20.9114 77.0426 20.2823 78.6394C19.1533 81.5025 18.5404 84.3089 18.4275 87.067C18.4194 87.3654 18.4114 87.6718 18.4114 87.9702C18.4114 92.5589 19.8227 95.6557 22.6452 97.2605C25.4598 98.8654 28.871 98.5186 32.871 96.2121C36.871 93.8976 40.2744 90.317 43.0969 85.4541C45.5808 81.1718 46.9678 76.9862 47.2662 72.9136C47.3065 72.3652 47.3227 71.8249 47.3227 71.2765C47.3227 68.8571 46.9356 66.8491 46.1453 65.2604ZM39.0162 83.1234C37.3307 86.0347 35.2823 88.1799 32.871 89.575C30.4597 90.9621 28.4114 91.1799 26.7259 90.2202C25.0404 89.2525 24.1936 87.3895 24.1936 84.6315C24.1936 83.3815 24.363 82.1073 24.7178 80.825C25.1372 79.2765 25.8065 77.7039 26.7259 76.1152C27.5082 74.7523 28.3791 73.5587 29.3307 72.5346C30.4114 71.3652 31.5887 70.4055 32.871 69.6716C35.2823 68.2765 37.3307 68.0668 39.0162 69.0265C40.7017 69.9862 41.5403 71.8491 41.5403 74.6152C41.5403 77.3813 40.7017 80.212 39.0162 83.1234Z" stroke="#A3A3A3" stroke-width="1.5"/>
<path d="M41.5403 74.6153C41.5403 77.3814 40.7017 80.2121 39.0162 83.1235C37.3307 86.0347 35.2823 88.1799 32.871 89.5751C30.4597 90.9622 28.4114 91.1799 26.7259 90.2202C25.0404 89.2525 24.1935 87.3896 24.1935 84.6315C24.1935 83.3815 24.363 82.1073 24.7178 80.8251C25.1372 79.2766 25.8065 77.704 26.7259 76.1153C27.5081 74.7524 28.3791 73.5589 29.3307 72.5347C30.4114 71.3653 31.5887 70.4056 32.871 69.6718C35.2823 68.2766 37.3307 68.0669 39.0162 69.0266C40.7017 69.9863 41.5403 71.8492 41.5403 74.6153Z" stroke="#A3A3A3" stroke-width="1.5"/>
<path d="M66.9519 10.091C65.8954 9.66355 64.6536 9.8571 63.2262 10.6716C61.6374 11.591 60.2745 13.0264 59.1454 14.978C58.0083 16.9377 57.444 18.8248 57.444 20.6474C57.444 21.849 57.6858 22.7926 58.1939 23.4861C58.4358 23.841 58.7583 24.1313 59.1454 24.349L57.202 23.3813L55.5326 22.5426L43.3712 16.4619L43.0164 16.2845C41.8793 15.6394 41.3149 14.4055 41.3149 12.5829C41.3149 10.7603 41.8793 8.87315 43.0164 6.91351C44.1454 4.9619 45.5084 3.52642 47.0971 2.60706C48.6858 1.69577 50.0487 1.55867 51.1778 2.20384L66.9519 10.091Z" stroke="#A3A3A3" stroke-width="1.5"/>
<path d="M47.2658 72.9135C47.3061 72.3651 47.3223 71.8248 47.3223 71.2764C47.3223 68.857 46.9353 66.849 46.1449 65.2602C45.6046 64.1473 44.8627 63.2441 43.9353 62.5425C43.6691 62.3328 43.3949 62.1474 43.0965 61.9781L42.3303 61.5909L39.8707 60.3652L34.0883 57.4781V52.2683L39.8707 55.1554L40.9674 55.7038L42.7577 56.47L50.2174 59.6554V72.9215C50.2174 73.8651 50.4916 74.4941 51.0481 74.8086L47.2658 72.9135Z" stroke="#A3A3A3" stroke-width="1.5"/>
<path d="M42.3306 61.5909C41.5565 61.2603 40.7421 61.0667 39.8711 61.0103C38.1211 60.8893 36.1935 61.349 34.0887 62.3893C33.6855 62.5828 33.2823 62.8006 32.871 63.0345C32.2903 63.3651 31.726 63.728 31.1776 64.1232C28.8631 65.728 26.7662 67.8086 24.8872 70.3651C24.0969 71.4296 23.3549 72.5667 22.6452 73.7925C21.7017 75.4216 20.9114 77.0425 20.2823 78.6393C19.1533 81.5024 18.5404 84.3088 18.4275 87.0669C18.4194 87.3653 18.4114 87.6717 18.4114 87.9701C18.4114 92.5588 19.8227 95.6556 22.6452 97.2604L7.24999 89.5669L6.51619 89.1959C3.69361 87.5911 2.28232 84.4943 2.28232 79.9054C2.28232 75.3167 3.69361 70.5909 6.51619 65.728C9.33072 60.8651 12.7419 57.2764 16.7419 54.9699C20.7419 52.6635 24.1453 52.3086 26.9679 53.9135L34.0887 57.478L39.8711 60.3651L42.3306 61.5909Z" stroke="#A3A3A3" stroke-width="1.5"/>
</svg>
