<svg width="100" height="100" viewBox="0 0 100 100" fill="none" xmlns="http://www.w3.org/2000/svg">
<rect width="100" height="100" rx="28" fill="#171717"/>
<path d="M48.7499 19.0543C49.3659 19.5675 49.7972 20.1538 50.1287 20.8854C50.1287 20.9806 50.1287 21.0759 50.1287 21.174C50.2235 21.1706 50.3183 21.1673 50.416 21.1639C52.1063 21.1244 53.7866 21.3428 55.4529 21.613C55.5214 21.624 55.5899 21.635 55.6604 21.6464C56.0194 21.7085 56.3303 21.8084 56.6668 21.9437C56.845 21.9816 57.0232 22.0192 57.2021 22.0533C59.1529 22.4318 61.0189 23.2395 62.8204 24.0604C62.9125 24.1023 62.9125 24.1023 63.0065 24.1451C64.5348 24.8509 65.9771 25.7693 67.3394 26.7544C67.0059 26.949 66.6891 27.0061 66.3099 27.0675C66.248 27.0777 66.1861 27.0878 66.1224 27.0983C65.9252 27.1306 65.7279 27.162 65.5306 27.1934C65.399 27.2148 65.2675 27.2363 65.136 27.2578C64.7809 27.3157 64.4258 27.3727 64.0703 27.4279C63.9544 27.4502 63.8385 27.4725 63.7191 27.4954C63.37 27.5265 63.2458 27.4956 62.9492 27.3215C62.8664 27.275 62.7837 27.2285 62.6984 27.1806C62.6097 27.1293 62.5211 27.0779 62.4297 27.025C60.6269 26.0346 58.6844 25.2249 56.6725 24.7791C56.4798 24.7351 56.2894 24.6858 56.0986 24.6343C54.193 24.1319 52.1916 23.917 50.2248 23.868C50.207 23.9254 50.1892 23.9828 50.1708 24.042C49.8113 25.166 49.1507 26.0952 48.0889 26.6533C47.3184 27.0398 46.6326 27.2722 45.7719 27.2655C45.7001 27.2651 45.6283 27.2647 45.5543 27.2643C44.9895 27.2528 44.4978 27.1699 43.9751 26.9468C43.9097 26.92 43.8443 26.8933 43.7768 26.8657C42.9512 26.4913 42.2251 25.9063 41.7637 25.1188C41.7637 25.0553 41.7637 24.9918 41.7637 24.9263C39.1904 25.7783 36.6582 26.8846 34.4564 28.4863C34.3796 28.5419 34.3027 28.5976 34.2236 28.655C33.1003 29.4755 32.046 30.3395 31.0545 31.3157C30.9183 31.4498 30.7805 31.5822 30.6424 31.7143C30.1524 32.1894 29.7146 32.697 29.2933 33.2338C29.2049 33.3464 29.1161 33.4586 29.0269 33.5706C26.8005 36.3716 25.0942 39.579 24.1489 43.0371C24.0723 43.3032 24.0723 43.3032 23.9761 43.4956C24.0462 43.5076 24.1162 43.5195 24.1884 43.5317C25.1697 43.7515 26.0019 44.4113 26.5797 45.2177C27.3202 46.4288 27.5118 47.545 27.2332 48.9438C26.9229 50.133 26.261 51.147 25.187 51.7806C24.5424 52.1297 23.9262 52.3205 23.207 52.4435C23.4258 55.1103 23.4258 55.1103 24.1684 57.6391C24.3123 57.2617 24.454 56.8853 24.5775 56.5007C25.2769 54.3463 26.4631 52.4514 28.0144 50.8079C28.119 50.684 28.2231 50.5597 28.3269 50.4351C31.7127 46.5741 37.1937 44.2816 42.2445 43.8805C42.2678 43.8177 42.2911 43.755 42.3151 43.6903C42.7261 42.6176 43.2681 41.8835 44.3237 41.3849C45.2435 41.0344 46.1912 41.0631 47.097 41.4443C48.0153 41.9236 48.6328 42.6055 48.9629 43.5919C49.2163 44.5804 49.0542 45.5211 48.5595 46.4204C48.0368 47.1664 47.2666 47.7101 46.3789 47.9215C45.2021 48.0335 44.3226 47.9054 43.4065 47.1495C43.1039 46.8626 42.8403 46.5502 42.6291 46.1896C42.6291 46.1261 42.6291 46.0626 42.6291 45.9972C40.4331 46.2782 38.3057 46.8232 36.2832 47.7291C36.1658 47.7808 36.1658 47.7808 36.0459 47.8336C34.6374 48.4583 33.3943 49.2178 32.1804 50.1679C31.9565 50.3268 31.9565 50.3268 31.7642 50.3268C31.7642 50.3903 31.7642 50.4538 31.7642 50.5193C31.6162 50.6467 31.4628 50.7678 31.3075 50.8861C28.757 52.941 26.8507 56.3004 26.476 59.5634C26.2491 62.857 27.4565 65.1254 29.5528 67.5491C29.6189 67.6262 29.6849 67.7032 29.753 67.7825C29.9962 68.0641 30.2405 68.3372 30.5083 68.5955C30.7066 68.7999 30.7066 68.7999 30.7066 68.9924C30.7636 69.0178 30.8206 69.0432 30.8793 69.0694C31.0989 69.189 31.2329 69.3102 31.4037 69.4915C33.9002 72.132 37.3472 73.9649 40.7061 75.2463C40.8077 75.2851 40.9093 75.3239 41.0141 75.3639C41.4238 75.5168 41.8131 75.6497 42.2445 75.7273C42.264 75.6503 42.264 75.6503 42.2839 75.5717C42.4721 74.9199 42.7851 74.4274 43.206 73.8993C43.259 73.8317 43.312 73.7641 43.3667 73.6944C44.1075 72.8563 45.361 72.251 46.475 72.1674C46.5573 72.1608 46.6396 72.1543 46.7244 72.1475C48.111 72.0937 49.3048 72.5529 50.351 73.4483C51.2033 74.2565 51.7459 75.2012 51.8214 76.3843C51.8289 76.4958 51.8363 76.6074 51.844 76.7223C51.8516 76.8489 51.8516 76.8489 51.8594 76.9781C53.4596 76.8273 55.0258 76.6119 56.5961 76.2662C56.832 76.2144 57.0684 76.1647 57.3049 76.1156C58.3751 75.8867 59.3929 75.5334 60.4166 75.15C60.4948 75.1213 60.573 75.0925 60.6536 75.0629C63.6388 73.9582 66.4837 72.2689 68.7816 70.0507C68.8749 69.961 68.8749 69.961 68.9701 69.8696C70.025 68.7678 70.4473 67.1153 70.4308 65.6264C70.4103 65.2217 70.3406 64.8575 70.2238 64.4703C70.1992 64.3884 70.1745 64.3066 70.1491 64.2222C69.3032 61.6791 67.2456 60.2118 64.9623 59.0447C64.7001 58.92 64.4351 58.8077 64.1664 58.6975C64.1021 58.6704 64.0377 58.6433 63.9714 58.6153C62.8756 58.1578 61.7607 57.8019 60.6149 57.4948C60.5519 57.4777 60.4888 57.4606 60.4239 57.443C59.5678 57.2031 59.5678 57.2031 58.6859 57.158C58.504 57.2683 58.504 57.2683 58.3614 57.4286C57.8246 57.9258 57.2533 58.0892 56.5245 58.0634C55.8569 57.9547 55.3569 57.5547 54.9504 57.031C54.7619 56.7551 54.6439 56.5303 54.6529 56.1899C54.6538 55.9389 54.6397 55.7585 54.5515 55.5224C54.3115 55.3197 54.0605 55.1765 53.7868 55.0225C53.3099 54.7398 52.9261 54.3704 52.5324 53.983C52.4629 53.9146 52.3933 53.8463 52.3217 53.7759C51.4327 52.8424 51.0156 51.7902 51.0451 50.5136C51.0991 49.6669 51.4371 48.8878 51.7632 48.1139C51.7935 48.0414 51.8239 47.9689 51.8551 47.8942C52.9534 45.3177 54.7213 42.8856 56.9553 41.1865C57.0415 41.1179 57.1278 41.0493 57.2167 40.9787C59.5302 39.1755 62.1941 38.1101 64.9356 37.1455C66.3385 36.651 67.73 36.1595 69.07 35.5099C69.1321 35.4798 69.1942 35.4497 69.2582 35.4187C70.5815 34.7674 71.8069 33.9606 72.8747 32.9399C73.1083 32.7197 73.1083 32.7197 73.3934 32.4915C73.713 32.2278 73.9579 31.9239 74.208 31.5952C74.2771 31.5055 74.2771 31.5055 74.3475 31.414C74.4802 31.2405 74.6118 31.0663 74.7428 30.8916C74.8036 30.811 74.8643 30.7304 74.9269 30.6473C75.8255 29.4071 76.5222 28.0525 77.1466 26.6582C77.1094 26.7185 77.0722 26.7787 77.0339 26.8409C76.9588 26.9588 76.9588 26.9588 76.8821 27.0791C76.8331 27.1573 76.784 27.2354 76.7334 27.3159C76.5697 27.5241 76.5697 27.5241 76.3638 27.6241C76.3048 27.6546 76.2459 27.6851 76.1851 27.7165C76.1526 27.8447 76.1206 27.973 76.0889 28.1014C75.7629 28.5092 75.3931 28.8799 75.0313 29.256C74.9811 29.3089 74.9308 29.3617 74.8791 29.4162C74.1503 30.1813 73.3923 30.8566 72.5314 31.4689C72.4509 31.527 72.4509 31.527 72.3687 31.5863C69.857 33.3855 66.913 34.4536 63.9381 35.2152C60.4275 36.133 57.1529 37.673 54.5083 40.1883C54.2631 40.4168 54.2631 40.4168 54.0092 40.6194C53.4276 41.0867 52.9857 41.7197 52.5204 42.299C52.472 42.3591 52.4237 42.4192 52.3739 42.4812C52.1353 42.7804 51.9054 43.0825 51.6858 43.396C51.6162 43.4924 51.5465 43.5888 51.4748 43.6881C51.443 43.6881 51.4113 43.6881 51.3786 43.6881C51.3144 39.7736 52.1453 36.5422 54.9241 33.6578C57.9313 30.7579 61.9118 29.6983 65.9022 28.9691C67.5393 28.6698 69.1712 28.3436 70.8007 28.0052C70.9059 27.9835 71.011 27.9619 71.1194 27.9396C73.4636 27.4459 76.191 26.5274 77.6874 24.5584C77.828 24.3358 77.922 24.115 78.0119 23.868C78.0754 23.868 78.1388 23.868 78.2042 23.868C80.0446 28.4641 80.1108 33.2958 78.208 37.8764C77.5189 39.4708 76.52 40.809 75.3197 42.0524C75.2368 42.1415 75.1539 42.2305 75.0685 42.3223C74.0203 43.4193 72.8004 44.2318 71.4645 44.9382C71.2932 45.0289 71.1229 45.1217 70.9528 45.2147C68.3995 46.5627 65.3842 47.1682 62.5259 47.3983C62.384 47.4104 62.2421 47.4225 62.1003 47.4346C61.1472 47.5147 60.1935 47.576 59.2388 47.6328C55.9601 47.7178 55.9601 47.7178 53.1431 49.1463C52.6056 49.8506 52.5459 50.6198 52.6286 51.4814C52.9199 52.583 53.7097 53.1423 54.6477 53.6943C54.7321 53.7486 54.8165 53.803 54.9035 53.8589C55.2146 54.0305 55.367 53.9816 55.7053 53.8868C55.8104 53.8371 55.9155 53.7875 56.0238 53.7364C56.6292 53.5003 57.1264 53.5335 57.7365 53.7484C58.21 53.9576 58.5794 54.2299 58.8782 54.6565C58.9684 54.9872 58.9684 54.9872 58.9744 55.2337C59.032 55.2451 59.0896 55.2564 59.149 55.268C60.4283 55.5213 61.7063 55.7932 62.9586 56.1598C63.0227 56.1785 63.0867 56.1971 63.1528 56.2163C63.5689 56.3418 63.9611 56.5025 64.3587 56.677C64.5467 56.7479 64.735 56.8181 64.9236 56.8874C66.8268 57.6204 68.5194 58.5723 70.0315 59.9482C70.1271 60.032 70.1271 60.032 70.2246 60.1174C71.1008 60.929 71.7746 62.0342 72.243 63.1233C72.2672 63.1798 72.2915 63.2362 72.3165 63.2944C72.5236 63.8057 72.6172 64.3105 72.6937 64.8551C72.7061 64.9389 72.7186 65.0226 72.7314 65.1088C72.7616 65.3128 72.7909 65.5169 72.8199 65.7211C73.8958 64.1918 74.8333 62.5599 75.512 60.8142C75.4493 60.7686 75.3866 60.7231 75.322 60.6762C74.4216 59.9945 73.7677 59.1658 73.589 58.024C73.5225 57.115 73.4628 56.2161 73.9736 55.4262C74.0348 55.319 74.0348 55.319 74.0972 55.2097C74.6884 54.2341 75.5714 53.5581 76.6418 53.1832C76.9207 53.1242 77.1523 53.1118 77.435 53.117C77.5885 51.3066 77.5588 49.5329 77.3389 47.7291C77.3291 47.6487 77.3193 47.5683 77.3092 47.4855C77.1786 46.4531 76.9858 45.4509 76.7091 44.4471C76.5536 43.8527 76.5536 43.8527 76.635 43.5062C76.7587 43.3084 76.8817 43.1513 77.0444 42.9845C77.4624 42.5282 77.7951 42.0187 78.1338 41.5025C78.2488 41.3298 78.3702 41.1615 78.4926 40.9941C78.5561 40.9941 78.6196 40.9941 78.6849 40.9941C79.276 42.5041 79.6746 44.0773 79.9589 45.6725C79.9734 45.7525 79.9879 45.8325 80.0029 45.9149C80.235 47.2991 80.3377 48.6805 80.318 50.0833C80.3165 50.1937 80.315 50.304 80.3134 50.4177C80.3064 50.8728 80.2981 51.3278 80.2865 51.7828C80.2784 52.1203 80.2739 52.4577 80.2699 52.7953C80.2663 52.898 80.2627 53.0008 80.259 53.1066C80.2413 53.6111 80.2413 53.6111 80.4446 54.0532C80.6158 54.2011 80.6158 54.2011 80.8964 54.3678C81.7935 55.4235 82.0826 56.4473 81.9804 57.8091C81.8348 58.9929 81.2233 59.9182 80.3255 60.6668C79.9565 60.941 79.5799 61.1682 79.1195 61.2321C78.8308 61.2775 78.6445 61.3301 78.3965 61.4877C78.1903 61.8301 78.0548 62.1802 77.9127 62.5528C77.3673 63.9738 76.5676 65.3365 75.7043 66.587C75.6607 66.6512 75.6171 66.7153 75.5722 66.7814C74.9293 67.7263 74.2494 68.6172 73.4929 69.4734C73.4255 69.5516 73.358 69.6297 73.2886 69.7102C72.3685 70.76 71.3815 71.7816 70.2817 72.6436C70.1114 72.7779 69.9447 72.9167 69.7814 73.0593C67.9784 74.6322 65.8367 75.8513 63.6857 76.8819C63.5273 76.9589 63.5273 76.9589 63.3657 77.0375C61.9045 77.7326 60.3985 78.1981 58.8447 78.6366C58.638 78.6961 58.4324 78.7597 58.2274 78.8246C56.4966 79.3692 54.6365 79.5188 52.84 79.7093C52.7417 79.7199 52.6434 79.7304 52.5421 79.7413C52.3375 79.7598 52.1323 79.7731 51.9271 79.7818C51.335 79.7986 51.335 79.7986 50.822 80.0607C50.7638 80.1428 50.7055 80.2249 50.6455 80.3095C49.8724 81.2891 48.8628 81.8258 47.6288 81.9812C46.0709 82.0961 44.9305 81.681 43.6627 80.8026C43.1128 80.2524 42.6624 79.6112 42.3406 78.9024C42.3406 78.8389 42.3406 78.7754 42.3406 78.71C42.2597 78.6933 42.1787 78.6767 42.0954 78.6596C39.888 78.1596 37.8082 77.2403 35.8025 76.2084C35.7223 76.1672 35.6422 76.1261 35.5596 76.0837C33.9319 75.2372 32.4202 74.1866 30.995 73.0333C30.9443 72.9924 30.8935 72.9515 30.8412 72.9094C28.6517 71.1319 26.638 68.9767 25.1299 66.587C25.0753 66.5038 25.0206 66.4206 24.9643 66.3348C23.6184 64.2702 22.529 62.0345 21.7461 59.6981C21.6768 59.4916 21.6048 59.2864 21.5319 59.0812C20.8047 56.9319 20.4686 54.5489 20.3428 52.2861C20.33 52.0443 20.33 52.0443 20.2263 51.77C20.0476 51.6179 20.0476 51.6179 19.8297 51.4694C18.8735 50.7434 18.2624 49.7048 18.0416 48.5221C17.8804 47.2184 18.1878 46.0478 18.9625 44.9821C19.4369 44.4182 20.0007 43.9159 20.7135 43.6915C21.1648 43.3782 21.1941 42.9364 21.314 42.4192C22.3931 38.23 24.5787 33.7048 27.7447 30.6766C27.914 30.5109 28.066 30.3389 28.2187 30.158C29.0566 29.1875 29.986 28.3133 30.995 27.5241C31.0693 27.4626 31.1435 27.4011 31.22 27.3377C32.3157 26.4328 33.5175 25.6399 34.7448 24.9263C34.8168 24.8841 34.8889 24.8418 34.9631 24.7983C39.3727 22.2324 39.3727 22.2324 41.0907 22.2324C41.099 22.1602 41.1073 22.088 41.1158 22.0136C41.2947 20.7097 41.8496 19.787 42.8751 18.9536C44.7111 17.6225 46.937 17.7116 48.7499 19.0543Z" fill="url(#paint0_linear_2_1136)"/>
<defs>
<linearGradient id="paint0_linear_2_1136" x1="50" y1="18" x2="50" y2="82" gradientUnits="userSpaceOnUse">
<stop offset="0.25" stop-color="#72D13C"/>
<stop offset="0.5" stop-color="#07894F"/>
<stop offset="0.6" stop-color="#22AE9C"/>
</linearGradient>
</defs>
</svg>
