<svg width="592" height="120" viewBox="0 0 592 120" fill="none" xmlns="http://www.w3.org/2000/svg">
<path d="M57.652 1.97678C58.8068 2.93899 59.6155 4.03845 60.237 5.41004C60.237 5.58864 60.237 5.76724 60.237 5.95125C60.4148 5.94497 60.5925 5.93869 60.7757 5.93222C63.9448 5.85817 67.0952 6.26783 70.2193 6.77433C70.3477 6.79498 70.4761 6.81563 70.6083 6.83691C71.2814 6.95349 71.8642 7.14072 72.4951 7.39445C72.8292 7.46551 73.1634 7.53597 73.4988 7.6C77.1562 8.30958 80.6547 9.82399 84.0322 11.3633C84.205 11.4419 84.205 11.4419 84.3813 11.5221C87.2467 12.8454 89.9506 14.5675 92.5047 16.4145C91.8795 16.7793 91.2856 16.8865 90.5746 17.0015C90.4586 17.0206 90.3426 17.0397 90.223 17.0594C89.8534 17.1199 89.4834 17.1787 89.1135 17.2376C88.8669 17.2778 88.6203 17.3181 88.3737 17.3584C87.7081 17.4669 87.0422 17.5738 86.3757 17.6773C86.1584 17.7191 85.9411 17.7609 85.7172 17.8039C85.0628 17.8623 84.8299 17.8043 84.2737 17.4779C84.1186 17.3907 83.9634 17.3035 83.8035 17.2137C83.6373 17.1174 83.4711 17.0211 83.2999 16.9219C79.9197 15.0648 76.2779 13.5466 72.5058 12.7107C72.1445 12.6283 71.7875 12.5358 71.4297 12.4393C67.8571 11.4973 64.1046 11.0944 60.4173 11.0025C60.3839 11.1101 60.3504 11.2178 60.316 11.3287C59.6419 13.4363 58.4034 15.1784 56.4127 16.2249C54.9681 16.9496 53.6824 17.3853 52.0687 17.3729C51.934 17.3721 51.7994 17.3714 51.6607 17.3706C50.6017 17.349 49.6799 17.1936 48.6999 16.7753C48.5773 16.7251 48.4546 16.6749 48.3281 16.6231C46.7802 15.9212 45.4188 14.8243 44.5538 13.3477C44.5538 13.2286 44.5538 13.1096 44.5538 12.9869C39.7291 14.5843 34.9816 16.6587 30.8535 19.6617C30.7095 19.7662 30.5655 19.8706 30.4171 19.9781C28.3111 21.5166 26.3343 23.1365 24.4755 24.9669C24.2201 25.2183 23.9617 25.4666 23.7027 25.7143C22.7841 26.6052 21.9633 27.5569 21.1735 28.5634C21.0077 28.7745 20.8412 28.9849 20.674 29.1948C16.4999 34.4467 13.3007 40.4606 11.5284 46.9446C11.3847 47.4435 11.3847 47.4435 11.2045 47.8043C11.3358 47.8267 11.4671 47.849 11.6023 47.872C13.4423 48.284 15.0025 49.5213 16.0858 51.0332C17.4741 53.304 17.8333 55.3969 17.311 58.0196C16.7292 60.2494 15.4883 62.1507 13.4747 63.3386C12.2661 63.9931 11.1108 64.3508 9.76235 64.5816C10.1727 69.5818 10.1727 69.5818 11.565 74.3233C11.8348 73.6156 12.1005 72.91 12.3319 72.1888C13.6433 68.1494 15.8671 64.5965 18.7757 61.5148C18.9717 61.2825 19.167 61.0494 19.3615 60.8158C25.7094 53.5764 35.9857 49.278 45.4551 48.5259C45.4988 48.4083 45.5425 48.2906 45.5875 48.1694C46.3582 46.1581 47.3744 44.7816 49.3534 43.8468C51.0779 43.1895 52.8547 43.2433 54.553 43.9581C56.2747 44.8568 57.4324 46.1353 58.0513 47.9847C58.5264 49.8383 58.2225 51.6021 57.295 53.2882C56.315 54.687 54.871 55.7065 53.2066 56.1028C51.0003 56.3127 49.3514 56.0726 47.6338 54.6553C47.0665 54.1174 46.5722 53.5316 46.1762 52.8556C46.1762 52.7365 46.1762 52.6174 46.1762 52.4948C42.059 53.0217 38.0704 54.0436 34.2786 55.742C34.0584 55.839 34.0584 55.839 33.8338 55.938C31.1929 57.1093 28.8624 58.5333 26.5863 60.3147C26.1666 60.6128 26.1666 60.6128 25.8061 60.6128C25.8061 60.7319 25.8061 60.8509 25.8061 60.9736C25.5286 61.2125 25.241 61.4395 24.9498 61.6614C20.1679 65.5143 16.5938 71.8133 15.8914 77.9313C15.4659 84.1068 17.7298 88.3601 21.6599 92.9046C21.7838 93.049 21.9077 93.1935 22.0353 93.3422C22.4912 93.8701 22.9492 94.3822 23.4513 94.8665C23.8231 95.2499 23.8231 95.2498 23.8231 95.6106C23.93 95.6583 24.0369 95.706 24.1471 95.7551C24.5587 95.9793 24.81 96.2067 25.1301 96.5465C29.8108 101.497 36.2734 104.934 42.5709 107.337C42.7614 107.41 42.952 107.482 43.1483 107.557C43.9166 107.844 44.6463 108.093 45.4551 108.239C45.4917 108.094 45.4917 108.094 45.5291 107.947C45.8819 106.725 46.4688 105.801 47.2578 104.811C47.3573 104.684 47.4567 104.558 47.5592 104.427C48.9482 102.856 51.2981 101.721 53.3869 101.564C53.5412 101.552 53.6955 101.539 53.8544 101.527C56.4541 101.426 58.6924 102.287 60.6539 103.965C62.2517 105.481 63.269 107.252 63.4107 109.471C63.4247 109.68 63.4387 109.889 63.4531 110.104C63.4673 110.342 63.4673 110.342 63.4818 110.584C66.4821 110.301 69.4185 109.897 72.3625 109.249C72.8049 109.152 73.248 109.059 73.6915 108.967C75.6979 108.538 77.6062 107.875 79.5255 107.156C79.6722 107.102 79.8188 107.048 79.9699 106.993C85.5667 104.922 90.9005 101.754 95.2087 97.5951C95.3837 97.4269 95.3837 97.4269 95.5622 97.2554C97.5401 95.1897 98.3317 92.0912 98.3007 89.2994C98.2624 88.5407 98.1316 87.8578 97.9127 87.1318C97.8665 86.9783 97.8203 86.8248 97.7726 86.6667C96.1866 81.8983 92.329 79.147 88.0481 76.9589C87.5564 76.7249 87.0597 76.5144 86.5559 76.3077C86.4353 76.2569 86.3146 76.2061 86.1903 76.1537C84.1359 75.2958 82.0455 74.6286 79.8973 74.0527C79.7791 74.0207 79.6609 73.9886 79.5392 73.9556C77.934 73.5058 77.934 73.5058 76.2807 73.4213C75.9396 73.6281 75.9396 73.6281 75.6723 73.9287C74.6659 74.8609 73.5948 75.1672 72.2283 75.1189C70.9767 74.915 70.0393 74.165 69.2771 73.1831C68.9237 72.6659 68.7025 72.2442 68.7194 71.606C68.721 71.1354 68.6946 70.7972 68.5293 70.3545C68.0793 69.9743 67.6086 69.7059 67.0956 69.4172C66.2014 68.8872 65.4818 68.1944 64.7437 67.4681C64.6133 67.3399 64.483 67.2118 64.3486 67.0798C62.6818 65.3294 61.8998 63.3566 61.9552 60.9631C62.0564 59.3754 62.6902 57.9147 63.3015 56.4636C63.3584 56.3277 63.4152 56.1917 63.4738 56.0517C65.5331 51.2206 68.8475 46.6605 73.0359 43.4747C73.1977 43.3461 73.3594 43.2175 73.526 43.085C77.8637 39.7042 82.858 37.7065 87.9981 35.8978C90.6283 34.9706 93.2371 34.049 95.7495 32.831C95.866 32.7746 95.9824 32.7182 96.1023 32.6601C98.5833 31.4389 100.881 29.9262 102.883 28.0123C103.321 27.5994 103.321 27.5994 103.855 27.1716C104.454 26.6772 104.914 26.1073 105.383 25.491C105.512 25.3228 105.512 25.3228 105.644 25.1512C105.893 24.826 106.14 24.4993 106.385 24.1718C106.499 24.0206 106.613 23.8695 106.73 23.7137C108.415 21.3883 109.721 18.8484 110.892 16.2341C110.822 16.3471 110.753 16.4602 110.681 16.5766C110.54 16.7977 110.54 16.7977 110.396 17.0234C110.304 17.1699 110.212 17.3164 110.117 17.4673C109.81 17.8577 109.81 17.8577 109.424 18.0452C109.314 18.1024 109.203 18.1596 109.089 18.2185C109.028 18.4588 108.968 18.6994 108.909 18.9401C108.298 19.7047 107.604 20.3998 106.926 21.1049C106.832 21.2041 106.738 21.3033 106.641 21.4054C105.274 22.8399 103.853 24.1061 102.239 25.2542C102.088 25.3632 102.088 25.3632 101.934 25.4744C97.225 28.8478 91.7053 30.8505 86.1278 32.2785C79.5458 33.9994 73.4065 36.8868 68.4483 41.603C67.9885 42.0315 67.9885 42.0315 67.5125 42.4113C66.4221 43.2875 65.5935 44.4744 64.7211 45.5606C64.6305 45.6733 64.5399 45.7861 64.4465 45.9022C63.9992 46.4633 63.5681 47.0296 63.1565 47.6176C63.0259 47.7983 62.8953 47.979 62.7607 48.1651C62.7013 48.1651 62.6418 48.1651 62.5805 48.1651C62.4601 40.8254 64.018 34.7667 69.2278 29.3583C74.8658 23.9211 82.3289 21.9343 89.8102 20.567C92.8797 20.0058 95.9392 19.3942 98.9943 18.7597C99.1915 18.7191 99.3886 18.6785 99.5917 18.6367C103.987 17.7111 109.1 15.9888 111.906 12.297C112.17 11.8795 112.346 11.4657 112.514 11.0025C112.633 11.0025 112.752 11.0025 112.875 11.0025C116.325 19.6202 116.45 28.6796 112.882 37.2682C111.59 40.2577 109.717 42.7669 107.467 45.0983C107.311 45.2653 107.156 45.4323 106.996 45.6043C105.031 47.6612 102.744 49.1845 100.239 50.5091C99.9176 50.6791 99.5985 50.8532 99.2795 51.0276C94.4923 53.555 88.839 54.6904 83.4801 55.1219C83.2141 55.1445 82.9481 55.1671 82.6822 55.1899C80.8953 55.3401 79.1072 55.455 77.3173 55.5616C71.1702 55.7209 71.1702 55.7209 65.8887 58.3994C64.8808 59.7199 64.7689 61.1621 64.9239 62.7776C65.4702 64.843 66.9509 65.8919 68.7095 66.9269C68.8678 67.0287 69.026 67.1306 69.1891 67.2355C69.7725 67.5572 70.0582 67.4654 70.6925 67.2877C70.8895 67.1946 71.0866 67.1016 71.2896 67.0058C72.4247 66.563 73.3568 66.6254 74.5006 67.0283C75.3884 67.4206 76.0809 67.931 76.6413 68.7309C76.8103 69.351 76.8103 69.351 76.8215 69.8133C76.9296 69.8345 77.0376 69.8557 77.1489 69.8775C79.5475 70.3524 81.9436 70.8623 84.2913 71.5496C84.4115 71.5846 84.5316 71.6196 84.6554 71.6556C85.4356 71.8909 86.1709 72.1922 86.9165 72.5193C87.2689 72.6524 87.6219 72.7839 87.9755 72.9139C91.5438 74.2883 94.7173 76.0731 97.5522 78.6529C97.7314 78.8099 97.7314 78.8099 97.9142 78.9701C99.557 80.4918 100.82 82.564 101.698 84.6062C101.744 84.712 101.789 84.8179 101.836 84.927C102.224 85.8857 102.4 86.8322 102.543 87.8534C102.567 88.0104 102.59 88.1673 102.614 88.3291C102.671 88.7115 102.726 89.0942 102.78 89.477C104.797 86.6095 106.555 83.5498 107.827 80.2766C107.71 80.1912 107.592 80.1059 107.471 80.0179C105.783 78.7397 104.557 77.1859 104.222 75.0449C104.097 73.3406 103.985 71.6551 104.943 70.1741C105.058 69.9732 105.058 69.9732 105.175 69.7682C106.283 67.9389 107.939 66.6714 109.946 65.9685C110.468 65.8578 110.903 65.8345 111.433 65.8445C111.721 62.4499 111.665 59.1242 111.252 55.742C111.234 55.5913 111.216 55.4406 111.197 55.2853C110.952 53.3496 110.591 51.4704 110.072 49.5883C109.78 48.4738 109.78 48.4738 109.933 47.8241C110.165 47.4532 110.395 47.1586 110.7 46.8459C111.484 45.9904 112.108 45.0351 112.743 44.0671C112.958 43.7435 113.186 43.4278 113.416 43.1139C113.535 43.1139 113.654 43.1139 113.776 43.1139C114.884 45.9453 115.632 48.895 116.165 51.8859C116.192 52.0359 116.219 52.1859 116.247 52.3404C116.682 54.9357 116.875 57.5259 116.838 60.1562C116.835 60.3631 116.832 60.57 116.829 60.7832C116.816 61.6365 116.801 62.4896 116.779 63.3427C116.764 63.9756 116.755 64.6082 116.748 65.2412C116.741 65.4338 116.734 65.6264 116.727 65.8249C116.694 66.7707 116.694 66.7708 117.075 67.5997C117.396 67.8771 117.396 67.8771 117.922 68.1897C119.604 70.169 120.146 72.0888 119.955 74.642C119.682 76.8617 118.535 78.5965 116.852 80.0003C116.16 80.5143 115.454 80.9405 114.591 81.0602C114.05 81.1454 113.7 81.244 113.235 81.5394C112.849 82.1815 112.595 82.838 112.328 83.5365C111.306 86.2009 109.807 88.7559 108.188 91.1006C108.106 91.2209 108.024 91.3412 107.94 91.4652C106.735 93.2368 105.46 94.9072 104.042 96.5127C103.915 96.6592 103.789 96.8057 103.659 96.9566C101.934 98.9249 100.083 100.841 98.0212 102.457C97.702 102.709 97.3895 102.969 97.0832 103.236C93.7029 106.185 89.6874 108.471 85.6546 110.404C85.3576 110.548 85.3576 110.548 85.0547 110.695C82.3152 111.999 79.4916 112.871 76.5783 113.694C76.1908 113.805 75.8055 113.924 75.421 114.046C72.176 115.067 68.6887 115.348 65.3204 115.705C65.1361 115.725 64.9517 115.744 64.7618 115.765C64.3782 115.8 63.9936 115.825 63.6087 115.841C62.4986 115.872 62.4986 115.872 61.5369 116.364C61.4277 116.518 61.3185 116.672 61.2059 116.83C59.7566 118.667 57.8636 119.673 55.5501 119.965C52.6293 120.18 50.4912 119.402 48.1141 117.755C47.0831 116.723 46.2387 115.521 45.6354 114.192C45.6354 114.073 45.6354 113.954 45.6354 113.831C45.4837 113.8 45.3319 113.769 45.1756 113.737C41.0371 112.799 37.1378 111.075 33.3773 109.141C33.227 109.064 33.0768 108.986 32.9219 108.907C29.8701 107.32 27.036 105.35 24.3639 103.188C24.2688 103.111 24.1736 103.034 24.0755 102.955C19.9706 99.6222 16.1951 95.5813 13.3677 91.1006C13.2652 90.9446 13.1627 90.7885 13.0571 90.6278C10.5338 86.7565 8.49125 82.5647 7.02349 78.1839C6.89348 77.7968 6.75845 77.412 6.62176 77.0272C5.25841 72.9973 4.62822 68.5291 4.39237 64.2864C4.36844 63.833 4.36844 63.833 4.17408 63.3188C3.83893 63.0336 3.83893 63.0336 3.43048 62.7551C1.63769 61.3938 0.491956 59.4465 0.0779437 57.2289C-0.224175 54.7846 0.352122 52.5896 1.80456 50.5914C2.69407 49.5342 3.75114 48.5922 5.08739 48.1715C5.9335 47.5841 5.98855 46.7557 6.21335 45.7861C8.23655 37.9313 12.3342 29.4466 18.2701 23.7687C18.5874 23.458 18.8724 23.1355 19.1587 22.7962C20.7296 20.9765 22.4723 19.3375 24.3639 17.8577C24.5031 17.7424 24.6423 17.627 24.7857 17.5082C26.8401 15.8115 29.0932 14.3248 31.3943 12.9869C31.5294 12.9077 31.6644 12.8284 31.8035 12.7468C40.071 7.93566 40.071 7.93566 43.2919 7.93566C43.3075 7.80032 43.3231 7.66497 43.3391 7.52553C43.6745 5.08073 44.7149 3.35061 46.6374 1.78792C50.0797 -0.707892 54.253 -0.540692 57.652 1.97678Z" fill="url(#paint0_linear_24_205)"/>
<path d="M158.709 86H150.069V32.4H188.067V40.16H158.709V56.72H186.867V64.56H158.709V86Z" fill="#1DAF61"/>
<path d="M204.612 86.8C197.492 86.8 191.973 83.12 191.973 76.16C191.973 69.6 196.772 66.16 205.252 64.96L219.171 62.88V60.72C219.171 54.8 216.451 53.04 210.211 53.04C203.892 53.04 201.412 55.04 201.412 60.32V61.52H193.093V60.72C193.093 51.84 200.052 45.44 210.691 45.44C221.811 45.44 227.41 52.16 227.41 61.84V86H219.411V79.76H219.011C216.691 83.52 212.131 86.8 204.612 86.8ZM200.372 75.52C200.372 78.64 202.372 79.92 207.412 79.92C213.011 79.92 219.171 77.68 219.171 69.68V68.96L206.532 70.88C201.972 71.52 200.372 72.56 200.372 75.52Z" fill="#1DAF61"/>
<path d="M244.322 86H235.683V46H243.602V52.32H244.002C245.602 48.64 249.282 45.44 255.121 45.44C263.441 45.44 266.641 51.52 266.641 58.96V61.6H258.001V60C258.001 54.72 256.481 52.8 251.442 52.8C246.242 52.8 244.322 54.8 244.322 60.08V86Z" fill="#1DAF61"/>
<path d="M280.648 86H272.008V46.24H279.928V53.68H280.248C282.088 49.44 286.247 45.44 293.847 45.44C300.806 45.44 305.126 48.64 307.046 53.68H307.286C309.126 49.52 313.205 45.44 321.045 45.44C331.284 45.44 335.844 52 335.844 61.04V86H327.204V62.96C327.204 55.84 325.044 52.88 317.845 52.88C311.285 52.88 308.246 55.6 308.246 62.88V86H299.606V62.96C299.606 55.84 297.446 52.88 290.247 52.88C283.687 52.88 280.648 55.6 280.648 62.8V86Z" fill="#1DAF61"/>
<path d="M352.992 86H344.353V32.4H353.632L373.95 63.12L379.63 71.68H380.27V32.4H388.909V86H379.63L353.552 47.04H352.992V86Z" fill="#1DAF61"/>
<path d="M415.004 86.8C402.765 86.8 395.165 78.48 395.165 66.08C395.165 53.76 402.765 45.44 415.004 45.44C427.163 45.44 434.522 53.76 434.522 66.08C434.522 78.48 427.163 86.8 415.004 86.8ZM415.004 79.12C423.323 79.12 426.203 75.04 426.203 66.08C426.203 57.2 423.323 53.12 415.004 53.12C406.604 53.12 403.645 57.2 403.645 66.08C403.645 75.04 406.604 79.12 415.004 79.12Z" fill="#1DAF61"/>
<path d="M449.62 86H440.981V46.24H448.9V53.68H449.22C451.06 49.44 455.22 45.44 462.819 45.44C469.779 45.44 474.098 48.64 476.018 53.68H476.258C478.098 49.52 482.178 45.44 490.017 45.44C500.256 45.44 504.816 52 504.816 61.04V86H496.177V62.96C496.177 55.84 494.017 52.88 486.817 52.88C480.258 52.88 477.218 55.6 477.218 62.88V86H468.579V62.96C468.579 55.84 466.419 52.88 459.219 52.88C452.66 52.88 449.62 55.6 449.62 62.8V86Z" fill="#1DAF61"/>
<path d="M523.808 86.8C516.688 86.8 511.169 83.12 511.169 76.16C511.169 69.6 515.969 66.16 524.448 64.96L538.367 62.88V60.72C538.367 54.8 535.647 53.04 529.408 53.04C523.088 53.04 520.608 55.04 520.608 60.32V61.52H512.289V60.72C512.289 51.84 519.248 45.44 529.888 45.44C541.007 45.44 546.606 52.16 546.606 61.84V86H538.607V79.76H538.207C535.887 83.52 531.327 86.8 523.808 86.8ZM519.568 75.52C519.568 78.64 521.568 79.92 526.608 79.92C532.207 79.92 538.367 77.68 538.367 69.68V68.96L525.728 70.88C521.168 71.52 519.568 72.56 519.568 75.52Z" fill="#1DAF61"/>
<path d="M570.641 86.8C559.282 86.8 553.123 78.72 553.123 66.08C553.123 53.52 559.202 45.44 570.161 45.44C577.201 45.44 581.441 48.8 583.201 52.4H583.441V32.4H592V86H584.081V79.44H583.761C581.841 84 577.441 86.8 570.641 86.8ZM561.762 66.08C561.762 75.92 564.882 79.44 572.561 79.44C579.601 79.44 583.441 76.32 583.441 69.68V62.56C583.441 55.92 579.601 52.8 572.561 52.8C564.962 52.8 561.762 56.32 561.762 66.08Z" fill="#1DAF61"/>
<defs>
<linearGradient id="paint0_linear_24_205" x1="296" y1="0" x2="296" y2="120" gradientUnits="userSpaceOnUse">
<stop offset="0.25" stop-color="#72D13C"/>
<stop offset="0.5" stop-color="#07894F"/>
<stop offset="0.6" stop-color="#22AE9C"/>
</linearGradient>
</defs>
</svg>
