<svg width="150" height="150" viewBox="0 0 150 150" fill="none" xmlns="http://www.w3.org/2000/svg">
<path d="M72.0701 2.47098C73.5138 3.67373 74.5247 5.04806 75.3016 6.76255C75.3016 6.9858 75.3016 7.20904 75.3016 7.43906C75.5238 7.43121 75.746 7.42336 75.975 7.41527C79.9367 7.32271 83.8749 7.83478 87.7803 8.46791C87.9408 8.49372 88.1013 8.51954 88.2667 8.54614C89.108 8.69187 89.8367 8.9259 90.6253 9.24307C91.0429 9.33188 91.4607 9.41996 91.88 9.50001C96.452 10.387 100.825 12.28 105.048 14.2041C105.264 14.3024 105.264 14.3024 105.484 14.4026C109.066 16.0567 112.446 18.2093 115.639 20.5181C114.858 20.9741 114.115 21.1081 113.226 21.2519C113.081 21.2758 112.936 21.2996 112.787 21.3242C112.325 21.3998 111.862 21.4734 111.4 21.547C111.091 21.5972 110.783 21.6476 110.475 21.6981C109.643 21.8337 108.81 21.9673 107.977 22.0967C107.706 22.1489 107.434 22.2011 107.154 22.2549C106.336 22.3278 106.045 22.2554 105.35 21.8474C105.156 21.7384 104.962 21.6294 104.762 21.5171C104.554 21.3967 104.346 21.2764 104.132 21.1524C99.9067 18.831 95.3541 16.9333 90.6387 15.8884C90.187 15.7854 89.7408 15.6698 89.2935 15.5492C84.8274 14.3716 80.1365 13.868 75.5269 13.7531C75.4852 13.8877 75.4434 14.0222 75.4004 14.1609C74.5577 16.7954 73.0095 18.973 70.5208 20.2811C68.715 21.187 67.1077 21.7316 65.0905 21.7161C64.9221 21.7152 64.7538 21.7142 64.5804 21.7133C63.2566 21.6863 62.1043 21.4919 60.8792 20.9691C60.7259 20.9064 60.5725 20.8436 60.4145 20.7789C58.4794 19.9014 56.7775 18.5304 55.6962 16.6846C55.6962 16.5358 55.6962 16.387 55.6962 16.2336C49.6649 18.2304 43.7301 20.8233 38.5697 24.5772C38.3896 24.7077 38.2095 24.8382 38.024 24.9727C35.3913 26.8958 32.9202 28.9206 30.5965 31.2087C30.2773 31.5229 29.9542 31.8333 29.6305 32.1429C28.4821 33.2565 27.4561 34.4462 26.4687 35.7043C26.2615 35.9681 26.0533 36.2311 25.8444 36.4935C20.6263 43.0584 16.6271 50.5757 14.4115 58.6808C14.2319 59.3044 14.2319 59.3044 14.0066 59.7554C14.1707 59.7833 14.3348 59.8112 14.5039 59.84C16.804 60.355 18.7545 61.9016 20.1086 63.7915C21.8441 66.63 22.2932 69.2462 21.6403 72.5244C20.9129 75.3118 19.3617 77.6884 16.8446 79.1732C15.3337 79.9914 13.8895 80.4386 12.2038 80.7271C12.7168 86.9772 12.7168 86.9772 14.4573 92.9041C14.7946 92.0195 15.1266 91.1375 15.4159 90.236C17.0553 85.1867 19.8353 80.7456 23.4713 76.8935C23.7163 76.6031 23.9605 76.3118 24.2036 76.0197C32.139 66.9705 44.9853 61.5975 56.823 60.6574C56.8776 60.5103 56.9322 60.3632 56.9884 60.2117C57.9519 57.6976 59.2222 55.977 61.6961 54.8085C63.8519 53.9869 66.073 54.0541 68.1961 54.9476C70.3483 56.071 71.7956 57.6691 72.5692 59.9809C73.1632 62.2979 72.7833 64.5027 71.6238 66.6103C70.3987 68.3588 68.5936 69.6331 66.513 70.1285C63.7549 70.3909 61.6936 70.0908 59.5465 68.3192C58.8373 67.6467 58.2194 66.9145 57.7243 66.0695C57.7243 65.9206 57.7243 65.7718 57.7243 65.6185C52.5775 66.2771 47.5914 67.5544 42.8513 69.6775C42.576 69.7988 42.576 69.7988 42.2952 69.9225C38.9939 71.3866 36.0805 73.1667 33.2352 75.3934C32.7106 75.766 32.7106 75.766 32.2599 75.766C32.2599 75.9148 32.2599 76.0637 32.2599 76.217C31.913 76.5156 31.5535 76.7994 31.1895 77.0768C25.2117 81.8929 20.7437 89.7667 19.8657 97.4142C19.3337 105.133 22.1638 110.45 27.0769 116.131C27.2317 116.311 27.3865 116.492 27.546 116.678C28.116 117.338 28.6886 117.978 29.3163 118.583C29.781 119.062 29.781 119.062 29.781 119.513C29.9147 119.573 30.0483 119.632 30.186 119.694C30.7005 119.974 31.0147 120.258 31.4148 120.683C37.2662 126.872 45.345 131.168 53.2174 134.171C53.4556 134.262 53.6938 134.353 53.9392 134.447C54.8996 134.805 55.8118 135.117 56.823 135.298C56.8687 135.118 56.8687 135.118 56.9154 134.934C57.3565 133.406 58.0901 132.252 59.0764 131.014C59.2008 130.855 59.3251 130.697 59.4532 130.534C61.1895 128.57 64.1272 127.151 66.7383 126.955C66.9312 126.939 67.1241 126.924 67.3228 126.908C70.5726 126.782 73.3707 127.858 75.8227 129.957C77.8202 131.851 79.0918 134.065 79.269 136.838C79.2865 137.1 79.3039 137.361 79.322 137.63C79.3397 137.927 79.3397 137.927 79.3579 138.23C83.1085 137.876 86.7792 137.372 90.4595 136.561C91.0126 136.44 91.5665 136.323 92.1209 136.208C94.6291 135.672 97.0146 134.844 99.414 133.945C99.5973 133.878 99.7806 133.811 99.9694 133.741C106.966 131.152 113.634 127.193 119.019 121.994C119.238 121.784 119.238 121.784 119.461 121.569C121.934 118.987 122.923 115.114 122.885 111.624C122.837 110.676 122.673 109.822 122.4 108.915C122.342 108.723 122.284 108.531 122.224 108.333C120.242 102.373 115.419 98.9338 110.068 96.1986C109.453 95.9062 108.832 95.643 108.203 95.3847C108.052 95.3211 107.901 95.2576 107.746 95.1922C105.177 94.1198 102.564 93.2858 99.8788 92.5659C99.731 92.5258 99.5832 92.4858 99.431 92.4445C97.4244 91.8822 97.4244 91.8822 95.3577 91.7766C94.9313 92.0351 94.9313 92.0351 94.5971 92.4109C93.339 93.5761 92 93.959 90.2917 93.8986C88.7272 93.6438 87.5553 92.7063 86.6025 91.4789C86.1607 90.8323 85.8842 90.3053 85.9053 89.5075C85.9073 88.9193 85.8743 88.4965 85.6677 87.9431C85.1052 87.4679 84.5168 87.1323 83.8754 86.7716C82.7576 86.109 81.858 85.243 80.9353 84.3351C80.7724 84.1749 80.6094 84.0147 80.4415 83.8497C78.3578 81.6618 77.3802 79.1957 77.4495 76.2038C77.576 74.2192 78.3682 72.3934 79.1325 70.5795C79.2036 70.4096 79.2747 70.2397 79.3479 70.0646C81.9221 64.0258 86.0655 58.3257 91.3014 54.3434C91.5036 54.1826 91.7058 54.0219 91.9141 53.8563C97.3365 49.6302 103.58 47.1331 110.005 44.8723C113.293 43.7133 116.555 42.5612 119.695 41.0388C119.841 40.9683 119.986 40.8978 120.136 40.8252C123.238 39.2987 126.11 37.4078 128.613 35.0154C129.16 34.4992 129.16 34.4992 129.828 33.9646C130.577 33.3465 131.151 32.6342 131.738 31.8637C131.899 31.6534 131.899 31.6534 132.064 31.4389C132.376 31.0325 132.684 30.6241 132.991 30.2147C133.133 30.0258 133.276 29.8368 133.422 29.6421C135.529 26.7354 137.161 23.5606 138.625 20.2926C138.538 20.4339 138.45 20.5752 138.361 20.7207C138.185 20.9972 138.185 20.9972 138.005 21.2792C137.89 21.4623 137.775 21.6455 137.656 21.8342C137.273 22.3222 137.273 22.3222 136.79 22.5565C136.652 22.628 136.514 22.6995 136.371 22.7732C136.295 23.0736 136.22 23.3743 136.146 23.6752C135.382 24.6309 134.515 25.4997 133.667 26.3812C133.549 26.5051 133.432 26.6291 133.31 26.7568C131.602 28.5499 129.826 30.1327 127.808 31.5677C127.619 31.704 127.619 31.704 127.427 31.843C121.54 36.0597 114.64 38.5632 107.667 40.3482C99.4393 42.4992 91.7646 46.1085 85.5664 52.0038C84.9916 52.5394 84.9916 52.5394 84.3966 53.0141C83.0335 54.1094 81.9977 55.593 80.9072 56.9507C80.7938 57.0917 80.6805 57.2326 80.5638 57.3778C80.0046 58.0791 79.4657 58.787 78.9512 59.522C78.7879 59.7478 78.6247 59.9737 78.4565 60.2064C78.3821 60.2064 78.3078 60.2064 78.2311 60.2064C78.0806 51.0318 80.0282 43.4584 86.5409 36.6979C93.5889 29.9013 102.918 27.4179 112.271 25.7088C116.108 25.0073 119.932 24.2428 123.752 23.4497C123.998 23.3989 124.245 23.3481 124.498 23.2958C129.993 22.1389 136.385 19.986 139.892 15.3712C140.222 14.8494 140.442 14.3321 140.653 13.7531C140.802 13.7531 140.95 13.7531 141.104 13.7531C145.417 24.5253 145.572 35.8495 141.113 46.5853C139.498 50.3222 137.156 53.4586 134.343 56.3729C134.149 56.5816 133.954 56.7903 133.754 57.0053C131.298 59.5764 128.439 61.4807 125.307 63.1364C124.906 63.3489 124.507 63.5665 124.108 63.7845C118.124 66.9437 111.057 68.363 104.358 68.9023C104.025 68.9306 103.693 68.9589 103.36 68.9873C101.126 69.1751 98.891 69.3188 96.6534 69.452C88.969 69.6511 88.969 69.6511 82.3666 72.9992C81.1068 74.6498 80.9669 76.4526 81.1607 78.472C81.8435 81.0538 83.6945 82.3648 85.893 83.6586C86.0908 83.7859 86.2887 83.9132 86.4925 84.0444C87.2218 84.4464 87.5789 84.3318 88.3718 84.1096C88.6182 83.9933 88.8645 83.877 89.1183 83.7572C90.5373 83.2037 91.7025 83.2817 93.1324 83.7854C94.2421 84.2757 95.1079 84.9137 95.8084 85.9136C96.0196 86.6888 96.0196 86.6888 96.0337 87.2666C96.1688 87.2931 96.3038 87.3196 96.443 87.3469C99.4414 87.9405 102.437 88.5779 105.372 89.437C105.522 89.4807 105.672 89.5244 105.827 89.5695C106.802 89.8636 107.721 90.2402 108.653 90.6491C109.094 90.8155 109.535 90.9799 109.977 91.1424C114.438 92.8604 118.405 95.0913 121.949 98.3162C122.173 98.5124 122.173 98.5124 122.401 98.7126C124.455 100.615 126.034 103.205 127.132 105.758C127.189 105.89 127.246 106.022 127.304 106.159C127.79 107.357 128.009 108.54 128.188 109.817C128.217 110.013 128.247 110.209 128.277 110.411C128.348 110.889 128.416 111.368 128.484 111.846C131.006 108.262 133.203 104.437 134.794 100.346C134.647 100.239 134.5 100.132 134.348 100.022C132.238 98.4247 130.706 96.4824 130.287 93.8061C130.131 91.6757 129.991 89.5689 131.188 87.7176C131.332 87.4664 131.332 87.4664 131.478 87.2102C132.863 84.9237 134.933 83.3393 137.442 82.4606C138.095 82.3222 138.638 82.2932 139.301 82.3056C139.661 78.0624 139.591 73.9053 139.075 69.6775C139.052 69.4891 139.03 69.3008 139.006 69.1067C138.7 66.687 138.248 64.3381 137.599 61.9853C137.235 60.5922 137.235 60.5922 137.426 59.7801C137.716 59.3165 138.004 58.9483 138.385 58.5574C139.365 57.488 140.145 56.2938 140.938 55.0839C141.208 54.6793 141.493 54.2848 141.78 53.8924C141.928 53.8924 142.077 53.8924 142.23 53.8924C143.616 57.4316 144.55 61.1187 145.216 64.8574C145.25 65.0449 145.284 65.2323 145.319 65.4255C145.863 68.6697 146.104 71.9074 146.058 75.1952C146.054 75.4539 146.051 75.7125 146.047 75.979C146.031 77.0456 146.011 78.112 145.984 79.1784C145.965 79.9695 145.954 80.7603 145.945 81.5515C145.937 81.7923 145.928 82.033 145.92 82.2811C145.878 83.4634 145.878 83.4634 146.355 84.4996C146.756 84.8464 146.756 84.8464 147.413 85.2371C149.516 87.7113 150.194 90.111 149.954 93.3025C149.613 96.0771 148.18 98.2457 146.075 100C145.211 100.643 144.328 101.176 143.249 101.325C142.572 101.432 142.136 101.555 141.554 101.924C141.071 102.727 140.753 103.547 140.42 104.421C139.142 107.751 137.268 110.945 135.245 113.876C135.142 114.026 135.04 114.177 134.935 114.332C133.428 116.546 131.835 118.634 130.061 120.641C129.903 120.824 129.745 121.007 129.583 121.196C127.426 123.656 125.113 126.051 122.535 128.071C122.136 128.386 121.745 128.711 121.363 129.045C117.137 132.732 112.117 135.589 107.076 138.004C106.705 138.185 106.705 138.185 106.326 138.369C102.901 139.998 99.3715 141.089 95.7297 142.117C95.2452 142.256 94.7635 142.406 94.2829 142.558C90.2264 143.834 85.8669 144.185 81.6563 144.631C81.4258 144.656 81.1954 144.681 80.958 144.706C80.4784 144.75 79.9976 144.781 79.5165 144.801C78.1288 144.84 78.1288 144.84 76.9266 145.455C76.79 145.647 76.6535 145.84 76.5128 146.038C74.701 148.334 72.3346 149.592 69.4425 149.956C65.7912 150.225 63.1185 149.252 60.1469 147.194C58.8581 145.904 57.8025 144.401 57.0483 142.74C57.0483 142.591 57.0483 142.442 57.0483 142.289C56.8586 142.25 56.6689 142.211 56.4735 142.171C51.3 140.999 46.4256 138.844 41.7246 136.426C41.5367 136.329 41.3489 136.233 41.1553 136.134C37.3403 134.15 33.7974 131.687 30.4571 128.984C30.3381 128.889 30.2191 128.793 30.0965 128.694C24.965 124.528 20.2454 119.477 16.7108 113.876C16.5827 113.681 16.4546 113.486 16.3226 113.285C13.1682 108.446 10.6148 103.206 8.77999 97.7298C8.61747 97.246 8.44867 96.765 8.27779 96.284C6.57348 91.2466 5.78568 85.6614 5.49085 80.358C5.46094 79.7913 5.46094 79.7913 5.21797 79.1485C4.799 78.7921 4.799 78.7921 4.2884 78.4438C2.04726 76.7423 0.614989 74.3081 0.0974365 71.5361C-0.280239 68.4807 0.440183 65.737 2.25586 63.2392C3.36783 61.9177 4.68925 60.7403 6.35968 60.2143C7.4174 59.4801 7.48622 58.4446 7.76723 57.2326C10.2964 47.4142 15.4189 36.8082 22.8392 29.7109C23.2359 29.3225 23.5922 28.9193 23.9501 28.4953C25.9139 26.2206 28.0923 24.1719 30.4571 22.3222C30.6311 22.178 30.8051 22.0338 30.9844 21.8852C33.5525 19.7643 36.3691 17.906 39.2457 16.2336C39.4145 16.1346 39.5833 16.0355 39.7571 15.9335C50.0923 9.91957 50.0923 9.91957 54.1188 9.91957C54.1382 9.75039 54.1577 9.58121 54.1777 9.40691C54.597 6.35091 55.8976 4.18827 58.3009 2.2349C62.6041 -0.884865 67.821 -0.675865 72.0701 2.47098Z" fill="url(#paint0_linear_24_198)"/>
<defs>
<linearGradient id="paint0_linear_24_198" x1="75" y1="0" x2="75" y2="150" gradientUnits="userSpaceOnUse">
<stop offset="0.25" stop-color="#72D13C"/>
<stop offset="0.5" stop-color="#07894F"/>
<stop offset="0.6" stop-color="#22AE9C"/>
</linearGradient>
</defs>
</svg>
