<svg width="100" height="100" viewBox="0 0 100 100" fill="none" xmlns="http://www.w3.org/2000/svg">
<path d="M48.0467 1.64732C49.0092 2.44916 49.6831 3.36537 50.2011 4.50837C50.2011 4.6572 50.2011 4.80603 50.2011 4.95937C50.3492 4.95414 50.4974 4.94891 50.65 4.94352C53.2911 4.88181 55.9166 5.22319 58.5202 5.64527C58.6272 5.66248 58.7342 5.67969 58.8444 5.69743C59.4053 5.79458 59.8911 5.9506 60.4169 6.16205C60.6953 6.22126 60.9738 6.27997 61.2533 6.33334C64.3013 6.92465 67.217 8.18666 70.0318 9.4694C70.1758 9.53491 70.1758 9.53491 70.3227 9.60175C72.7107 10.7045 74.9642 12.1395 77.0927 13.6788C76.5717 13.9827 76.0767 14.0721 75.4842 14.1679C75.3875 14.1838 75.2908 14.1997 75.1912 14.2161C74.8831 14.2666 74.5748 14.3156 74.2665 14.3647C74.061 14.3981 73.8555 14.4317 73.65 14.4654C73.0952 14.5558 72.5403 14.6449 71.9848 14.7311C71.8037 14.7659 71.6226 14.8007 71.4361 14.8366C70.8907 14.8852 70.6966 14.8369 70.2331 14.5649C70.1038 14.4923 69.9745 14.4196 69.8412 14.3447C69.7027 14.2645 69.5642 14.1843 69.4215 14.1016C66.6045 12.554 63.5694 11.2889 60.4258 10.5923C60.1247 10.5236 59.8272 10.4465 59.529 10.3661C56.5516 9.58106 53.4243 9.24532 50.3513 9.16873C50.3234 9.25845 50.2956 9.34816 50.2669 9.44059C49.7051 11.197 48.673 12.6487 47.0139 13.5207C45.81 14.1247 44.7385 14.4878 43.3936 14.4774C43.2814 14.4768 43.1692 14.4762 43.0536 14.4755C42.1711 14.4575 41.4029 14.328 40.5862 13.9794C40.4839 13.9376 40.3817 13.8957 40.2763 13.8526C38.9862 13.2676 37.8517 12.3536 37.1308 11.1231C37.1308 11.0239 37.1308 10.9246 37.1308 10.8224C33.1099 12.1536 29.1534 13.8822 25.7131 16.3848C25.5931 16.4718 25.473 16.5588 25.3493 16.6485C23.5942 17.9305 21.9468 19.2804 20.3977 20.8058C20.1848 21.0153 19.9695 21.2222 19.7537 21.4286C18.9881 22.171 18.3041 22.9641 17.6458 23.8028C17.5077 23.9787 17.3689 24.1541 17.2296 24.329C13.7509 28.7056 11.0847 33.7171 9.60768 39.1205C9.48796 39.5363 9.48796 39.5363 9.33773 39.8369C9.44715 39.8555 9.55656 39.8742 9.6693 39.8933C11.2027 40.2367 12.503 41.2677 13.4058 42.5277C14.5627 44.42 14.8621 46.1641 14.4269 48.3496C13.942 50.2078 12.9078 51.7923 11.2297 52.7821C10.2225 53.3276 9.25967 53.6257 8.13587 53.818C8.47786 57.9848 8.47786 57.9848 9.63819 61.9361C9.86304 61.3464 10.0844 60.7584 10.2773 60.1573C11.3702 56.7911 13.2235 53.8304 15.6475 51.2624C15.8109 51.0687 15.9737 50.8745 16.1358 50.6798C21.426 44.647 29.9902 41.065 37.882 40.4383C37.9184 40.3402 37.9548 40.2422 37.9923 40.1411C38.6346 38.4651 39.4814 37.318 41.1308 36.539C42.568 35.9913 44.0487 36.0361 45.464 36.6318C46.8989 37.3807 47.8637 38.4461 48.3795 39.9873C48.7755 41.532 48.5222 43.0018 47.7492 44.4069C46.9325 45.5725 45.7291 46.4221 44.342 46.7523C42.5033 46.9273 41.1291 46.7272 39.6977 45.5461C39.2249 45.0978 38.8129 44.6097 38.4829 44.0463C38.4829 43.9471 38.4829 43.8479 38.4829 43.7456C35.0517 44.1848 31.7276 45.0363 28.5675 46.4517C28.384 46.5325 28.384 46.5325 28.1968 46.615C25.9959 47.5911 24.0537 48.7778 22.1568 50.2623C21.8071 50.5107 21.8071 50.5107 21.5066 50.5107C21.5066 50.6099 21.5066 50.7091 21.5066 50.8114C21.2754 51.0104 21.0357 51.1996 20.793 51.3845C16.8078 54.5952 13.8292 59.8444 13.2438 64.9428C12.8891 70.089 14.7758 73.6334 18.0512 77.4205C18.1545 77.5409 18.2577 77.6612 18.364 77.7852C18.744 78.2251 19.1257 78.6518 19.5442 79.0554C19.854 79.3749 19.854 79.3749 19.854 79.6756C19.9431 79.7153 20.0322 79.755 20.124 79.7959C20.467 79.9828 20.6764 80.1723 20.9432 80.4554C24.8441 84.5812 30.23 87.4452 35.4782 89.4473C35.637 89.5079 35.7958 89.5686 35.9595 89.6311C36.5998 89.8701 37.2079 90.0777 37.882 90.199C37.9125 90.0786 37.9125 90.0786 37.9436 89.9558C38.2376 88.9374 38.7267 88.1678 39.3843 87.3426C39.4672 87.237 39.5501 87.1314 39.6355 87.0226C40.793 85.713 42.7515 84.7672 44.4922 84.6366C44.6208 84.6263 44.7494 84.616 44.8819 84.6055C47.0484 84.5214 48.9138 85.2389 50.5485 86.6379C51.8801 87.9007 52.7279 89.3769 52.846 91.2255C52.8576 91.3997 52.8693 91.574 52.8813 91.7535C52.8932 91.9514 52.8932 91.9514 52.9053 92.1533C55.4057 91.9177 57.8528 91.5811 60.3064 91.041C60.6751 90.9599 61.0443 90.8823 61.414 90.8056C63.086 90.448 64.6764 89.896 66.276 89.297C66.3982 89.252 66.5204 89.2071 66.6463 89.1608C71.3107 87.4347 75.7558 84.7952 79.3462 81.3292C79.4921 81.1891 79.4921 81.1891 79.6408 81.0462C81.2891 79.3247 81.9489 76.7427 81.9231 74.4162C81.8912 73.7839 81.7822 73.2149 81.5997 72.6098C81.5612 72.4819 81.5227 72.354 81.4829 72.2223C80.1612 68.2486 76.9463 65.9559 73.3786 64.1324C72.9688 63.9374 72.5549 63.762 72.1351 63.5898C72.0345 63.5474 71.9339 63.5051 71.8303 63.4615C70.1182 62.7465 68.3761 62.1905 66.5858 61.7106C66.4873 61.6839 66.3888 61.6572 66.2873 61.6297C64.9496 61.2548 64.9496 61.2548 63.5718 61.1844C63.2875 61.3568 63.2875 61.3568 63.0648 61.6072C62.226 62.3841 61.3334 62.6394 60.1945 62.5991C59.1515 62.4292 58.3702 61.8042 57.735 60.9859C57.4405 60.5549 57.2561 60.2035 57.2702 59.6717C57.2715 59.2795 57.2496 58.9977 57.1118 58.6287C56.7368 58.312 56.3445 58.0882 55.917 57.8477C55.1717 57.406 54.572 56.8287 53.9569 56.2234C53.8482 56.1166 53.7396 56.0098 53.6277 55.8998C52.2385 54.4412 51.5868 52.7971 51.633 50.8025C51.7173 49.4795 52.2455 48.2623 52.755 47.053C52.8024 46.9397 52.8498 46.8265 52.8986 46.7098C54.6148 42.6839 57.377 38.8838 60.8676 36.2289C61.0024 36.1217 61.1372 36.0146 61.276 35.9042C64.891 33.0868 69.0532 31.4221 73.3369 29.9149C75.5289 29.1422 77.7031 28.3742 79.7969 27.3592C79.894 27.3122 79.991 27.2652 80.0909 27.2168C82.1586 26.1991 84.0733 24.9385 85.7417 23.3436C86.1067 22.9995 86.1067 22.9995 86.5521 22.643C87.0515 22.231 87.4342 21.7561 87.825 21.2425C87.9329 21.1023 87.9329 21.1023 88.043 20.9593C88.2504 20.6883 88.4559 20.4161 88.6607 20.1431C88.7556 20.0172 88.8505 19.8912 88.9482 19.7614C90.3524 17.8236 91.441 15.707 92.4165 13.5284C92.3584 13.6226 92.3003 13.7168 92.2404 13.8138C92.1231 13.9981 92.1231 13.9981 92.0034 14.1861C91.9267 14.3082 91.85 14.4303 91.771 14.5561C91.5151 14.8814 91.5151 14.8814 91.1935 15.0376C91.1013 15.0853 91.0091 15.133 90.9142 15.1821C90.8634 15.3824 90.8134 15.5829 90.7639 15.7834C90.2545 16.4206 89.6767 16.9998 89.1114 17.5875C89.0329 17.6701 88.9544 17.7527 88.8736 17.8378C87.7349 19.0333 86.5505 20.0884 85.2053 21.0451C85.0795 21.136 85.0795 21.136 84.9511 21.2287C81.0266 24.0398 76.4265 25.7088 71.7783 26.8988C66.2929 28.3328 61.1764 30.739 57.0443 34.6692C56.6611 35.0262 56.6611 35.0262 56.2644 35.3428C55.3557 36.0729 54.6651 37.062 53.9381 37.9672C53.8626 38.0611 53.787 38.1551 53.7092 38.2519C53.3364 38.7194 52.9771 39.1914 52.6341 39.6813C52.5253 39.8319 52.4165 39.9825 52.3043 40.1376C52.2547 40.1376 52.2052 40.1376 52.1541 40.1376C52.0537 34.0212 53.3521 28.9722 57.6939 24.4653C62.3926 19.9342 68.6122 18.2786 74.8471 17.1392C77.4052 16.6715 79.955 16.1619 82.5011 15.6331C82.6654 15.5993 82.8297 15.5654 82.999 15.5306C86.6619 14.7593 90.9234 13.324 93.2616 10.2475C93.4813 9.89962 93.6281 9.55474 93.7686 9.16873C93.8677 9.16873 93.9669 9.16873 94.0691 9.16873C96.9447 16.3502 97.0482 23.8997 94.075 31.0568C92.9984 33.5481 91.4375 35.639 89.5621 37.5819C89.4325 37.7211 89.303 37.8602 89.1695 38.0036C87.5318 39.7176 85.6257 40.9871 83.5383 42.0909C83.2706 42.2326 83.0046 42.3777 82.7388 42.523C78.7492 44.6291 74.0378 45.5753 69.5717 45.9349C69.35 45.9537 69.1283 45.9726 68.9067 45.9916C67.4175 46.1168 65.9273 46.2125 64.4356 46.3013C59.3127 46.4341 59.3127 46.4341 54.9111 48.6662C54.0712 49.7666 53.9779 50.9684 54.1071 52.3147C54.5623 54.0359 55.7963 54.9099 57.262 55.7724C57.3939 55.8573 57.5258 55.9421 57.6617 56.0296C58.1478 56.2976 58.3859 56.2212 58.9146 56.0731C59.0788 55.9955 59.243 55.918 59.4122 55.8382C60.3582 55.4691 61.135 55.5211 62.0882 55.8569C62.8281 56.1838 63.4053 56.6092 63.8723 57.2757C64.0131 57.7925 64.0131 57.7925 64.0225 58.1777C64.1125 58.1954 64.2026 58.2131 64.2953 58.2313C66.2943 58.627 68.2911 59.0519 70.2478 59.6247C70.3479 59.6538 70.448 59.683 70.5512 59.713C71.2014 59.9091 71.8141 60.1601 72.4355 60.4328C72.7292 60.5437 73.0235 60.6533 73.3181 60.7616C76.2919 61.9069 78.9366 63.3942 81.2993 65.5441C81.4486 65.6749 81.4486 65.6749 81.6009 65.8084C82.9701 67.0765 84.0228 68.8034 84.7546 70.5051C84.7926 70.5934 84.8305 70.6816 84.8696 70.7725C85.1931 71.5714 85.3393 72.3601 85.4588 73.2112C85.4783 73.342 85.4978 73.4728 85.5178 73.6076C85.5651 73.9263 85.6107 74.2452 85.656 74.5642C87.3372 72.1746 88.802 69.6248 89.8625 66.8971C89.7645 66.826 89.6665 66.7549 89.5656 66.6816C88.1588 65.6165 87.1371 64.3216 86.8579 62.5374C86.7539 61.1171 86.6606 59.7126 87.4588 58.4784C87.5544 58.311 87.5544 58.311 87.6519 58.1402C88.5757 56.6158 89.9552 55.5595 91.6278 54.9737C92.0635 54.8815 92.4254 54.8621 92.8672 54.8704C93.107 52.0416 93.0606 49.2702 92.717 46.4517C92.7017 46.3261 92.6864 46.2005 92.6706 46.0711C92.4666 44.458 92.1653 42.892 91.7329 41.3236C91.49 40.3948 91.49 40.3948 91.6172 39.8534C91.8105 39.5444 92.0027 39.2989 92.2569 39.0383C92.9101 38.3254 93.4298 37.5292 93.959 36.7226C94.1387 36.4529 94.3284 36.1899 94.5198 35.9282C94.6189 35.9282 94.7181 35.9282 94.8202 35.9282C95.7438 38.2877 96.3666 40.7458 96.8108 43.2383C96.8335 43.3632 96.8561 43.4882 96.8795 43.617C97.2422 45.7798 97.4026 47.9382 97.3718 50.1301C97.3695 50.3026 97.3671 50.475 97.3647 50.6527C97.3537 51.3638 97.3408 52.0747 97.3227 52.7856C97.31 53.313 97.3029 53.8402 97.2967 54.3677C97.2911 54.5282 97.2855 54.6887 97.2798 54.8541C97.252 55.6423 97.252 55.6423 97.5697 56.3331C97.8371 56.5642 97.8371 56.5642 98.2756 56.8247C99.6774 58.4742 100.129 60.074 99.9694 62.2017C99.7419 64.0514 98.7864 65.4971 97.3836 66.6669C96.807 67.0953 96.2186 67.4504 95.4992 67.5501C95.048 67.6212 94.7571 67.7033 94.3695 67.9495C94.0474 68.4846 93.8356 69.0316 93.6137 69.6137C92.7614 71.8341 91.5119 73.9632 90.163 75.9172C90.0949 76.0175 90.0268 76.1177 89.9566 76.221C88.952 77.6974 87.8897 79.0893 86.7076 80.4272C86.6023 80.5493 86.4969 80.6714 86.3884 80.7972C84.9507 82.4375 83.4086 84.0338 81.6901 85.3806C81.4241 85.5904 81.1636 85.8073 80.9084 86.0301C78.0912 88.4879 74.7448 90.3927 71.3839 92.003C71.1364 92.1233 71.1364 92.1233 70.8839 92.2461C68.6008 93.3321 66.2477 94.0596 63.8198 94.7447C63.4968 94.8377 63.1757 94.9371 62.8552 95.0384C60.151 95.8893 57.2446 96.1232 54.4375 96.4208C54.2839 96.4373 54.1303 96.4537 53.972 96.4707C53.6523 96.4997 53.3318 96.5204 53.011 96.5341C52.0859 96.5603 52.0859 96.5603 51.2844 96.9699C51.1934 97.0982 51.1023 97.2264 51.0086 97.3586C49.8007 98.8892 48.2231 99.7278 46.295 99.9707C43.8608 100.15 42.079 99.5015 40.0979 98.1291C39.2387 97.2693 38.535 96.2675 38.0322 95.16C38.0322 95.0608 38.0322 94.9615 38.0322 94.8593C37.9057 94.8334 37.7793 94.8074 37.649 94.7806C34.2 93.9993 30.9504 92.5629 27.8164 90.9506C27.6911 90.8863 27.5659 90.822 27.4369 90.7557C24.8935 89.4331 22.5316 87.7915 20.3047 85.9896C20.2254 85.9257 20.1461 85.8618 20.0643 85.796C16.6433 83.0185 13.4969 79.6511 11.1405 75.9172C11.0551 75.7872 10.9697 75.6571 10.8817 75.5231C8.7788 72.2971 7.07654 68.8039 5.85332 65.1532C5.74498 64.8307 5.63244 64.51 5.51853 64.1893C4.38232 60.8311 3.85712 57.1076 3.66057 53.572C3.64063 53.1942 3.64063 53.1942 3.47865 52.7657C3.19933 52.528 3.19933 52.528 2.85894 52.2959C1.36484 51.1615 0.409993 49.5387 0.0649576 47.6907C-0.186826 45.6538 0.293456 43.8247 1.50391 42.1595C2.24522 41.2785 3.12617 40.4935 4.23979 40.1429C4.94493 39.6534 4.99081 38.9631 5.17816 38.1551C6.86428 31.6095 10.2793 24.5388 15.2262 19.8072C15.4906 19.5483 15.7281 19.2796 15.9668 18.9968C17.2759 17.4804 18.7282 16.1146 20.3047 14.8814C20.4207 14.7853 20.5367 14.6892 20.6562 14.5902C22.3684 13.1762 24.246 11.9374 26.1638 10.8224C26.2763 10.7564 26.3888 10.6903 26.5048 10.6223C33.3948 6.61305 33.3948 6.61305 36.0792 6.61305C36.0922 6.50026 36.1051 6.38748 36.1185 6.27127C36.398 4.23394 37.265 2.79218 38.8673 1.48994C41.7361 -0.58991 45.214 -0.450576 48.0467 1.64732Z" fill="url(#paint0_linear_24_184)"/>
<defs>
<linearGradient id="paint0_linear_24_184" x1="50" y1="0" x2="50" y2="100" gradientUnits="userSpaceOnUse">
<stop offset="0.25" stop-color="#72D13C"/>
<stop offset="0.5" stop-color="#07894F"/>
<stop offset="0.6" stop-color="#22AE9C"/>
</linearGradient>
</defs>
</svg>
